<svg width="432" height="324" viewBox="0 0 432 324" fill="none" xmlns="http://www.w3.org/2000/svg">
<path d="M224.53 104.765C224.641 104.804 224.751 104.844 224.956 105.014C226.918 104.991 228.765 104.941 230.666 104.628C231.28 104.527 232.033 103.734 232.723 103.257C234.828 101.292 236.051 102.258 237.224 103.565C237.286 104.584 237.617 105.315 237.419 106.081C236.985 107.759 237.567 107.966 238.703 107.818C239.323 107.964 239.85 108.051 240.46 108.19C241.283 107.969 242.025 107.695 242.943 107.356C242.19 106.932 241.628 106.616 240.96 106.255C240.276 106.111 239.696 106.012 239.178 105.745C239.592 104.948 239.945 104.318 240.298 103.688C240.375 103.616 240.454 103.556 240.609 103.64C242.567 104.133 244.502 104.383 246.302 104.934C246.778 105.08 246.804 106.184 247.096 106.788C247.272 107.151 247.506 107.693 247.814 107.639C248.558 107.511 249.361 107.08 250.14 106.771C250.41 106.891 250.68 107.012 251.064 107.318C251.475 107.651 251.796 107.758 252.063 107.952C254.115 109.443 256.19 110.902 258.187 112.478C259.035 113.148 259.635 114.199 260.488 114.86C261.84 115.906 261.877 116.145 260.328 118.387C260.324 118.392 260.315 118.394 260.221 118.372C259.921 119.087 259.715 119.823 259.531 120.672C259.556 121.198 259.559 121.61 259.451 122.139C259.322 122.839 259.198 123.939 259.305 123.922C260.023 123.81 260.789 123.461 261.605 123.147C261.67 123.104 261.794 122.996 261.9 123.013C262.417 122.681 262.821 122.306 263.24 121.988C263.765 121.588 264.301 121.235 264.833 120.861C264.912 121.547 265.192 122.214 265.021 122.925C264.797 123.854 264.163 124.811 263.806 125.77C263.486 126.629 263.13 127.577 263.097 128.362C263.044 129.637 262.729 130.548 261.659 131.538C261.199 131.964 260.977 132.97 260.657 133.716C260.668 133.718 260.691 133.695 260.594 133.833C260.641 134.616 260.88 135.212 260.908 135.916C260.96 137.199 260.972 138.522 260.824 139.882C260.768 140.392 260.225 141.425 259.897 141.582C258.48 142.26 257.062 142.664 255.642 143.243C254.91 143.54 254.144 143.876 253.441 144.399C251.529 145.821 249.657 147.767 247.741 148.743C244.851 150.217 241.939 150.988 239.032 152.184C238.201 152.526 237.353 153.303 236.408 153.891C235.97 154.147 235.636 154.392 235.248 154.554C234.913 154.529 234.634 154.587 234.286 154.562C230.999 155.645 227.782 156.812 224.47 157.954C223.662 158.401 222.951 158.874 222.132 159.366C221.656 159.575 221.288 159.765 220.881 159.85C220.294 159.918 219.747 160.065 219.196 160.272C213.527 162.407 207.858 164.552 202.107 166.649C201.607 166.812 201.189 167.02 200.714 167.214C200.657 167.199 200.532 167.203 200.447 167.14C199.243 167.089 198.258 167.594 197.346 169.62C198.803 169.17 200.059 168.782 201.397 168.409C201.593 168.426 201.707 168.428 201.895 168.499C202.318 168.466 202.668 168.364 203.124 168.262C205.186 167.804 207.162 167.24 209.09 166.912C212.029 166.413 214.929 166.104 217.856 165.666C222.342 164.994 226.846 164.233 231.321 163.614C232.812 163.407 233.973 164.299 235.784 163.209C236.853 162.565 238.004 162.812 239.133 162.566C241.923 161.96 244.722 161.3 247.626 160.673C247.895 160.631 248.055 160.577 248.28 160.608C249.383 160.557 250.423 160.422 251.54 160.324C251.873 160.305 252.128 160.249 252.476 160.241C253.219 160.22 253.87 160.152 254.621 160.127C255.029 160.187 255.336 160.204 255.72 160.281C257.011 159.996 258.226 159.65 259.521 159.37C259.744 159.44 259.888 159.445 260.091 159.54C260.814 159.498 261.477 159.366 262.225 159.29C262.983 159.184 263.656 159.022 264.388 158.922C264.63 158.936 264.814 158.886 265.085 158.891C265.324 158.928 265.474 158.912 265.688 158.987C267.282 158.885 268.812 158.692 270.432 158.517C270.783 158.404 271.046 158.274 271.379 158.2C271.72 158.154 271.99 158.053 272.361 157.999C273.149 158.144 273.835 158.241 274.587 158.407C275.073 158.391 275.492 158.306 275.99 158.271C276.341 158.304 276.613 158.287 276.965 158.326C277.558 158.219 278.072 158.056 278.673 157.937C278.976 157.952 279.192 157.923 279.478 157.974C283.821 157.683 288.094 157.312 292.422 156.986C292.569 157.066 292.672 157.057 292.825 157.094C293.738 157.118 294.612 157.05 295.571 157.017C295.782 157.067 295.909 157.081 296.024 157.222C297.126 157.31 298.239 157.271 299.359 157.219C299.366 157.207 299.386 157.206 299.437 157.318C300.491 157.221 301.494 157.011 302.602 156.84C305.23 157.223 307.784 157.493 310.27 157.935C312.116 158.263 313.859 158.851 315.676 159.257C318.099 159.798 318.453 160.764 317.67 164.219C317.531 164.83 317.795 165.795 318.164 165.868C319.381 166.111 319.548 167.085 319.218 168.642C319.076 169.313 319.058 169.966 318.969 170.754C320.837 170.012 320.54 171.391 320.123 172.927C319.767 174.238 319.661 175.616 319.084 176.838C318.371 178.351 317.414 179.973 316.326 181.106C315.243 182.233 313.866 182.812 312.56 183.675C312.425 183.777 312.349 183.838 312.188 183.848C311.184 184.317 310.261 184.799 309.352 185.376C308.758 185.753 308.19 186.316 307.598 186.714C304.724 188.641 301.53 189.153 299.105 193.116C298.808 193.601 298.044 193.812 297.497 194.063C296.832 194.368 296.169 194.544 295.504 194.84C292.912 195.993 290.315 197.27 287.729 198.314C284.093 199.782 280.465 201.06 276.831 202.462C272.864 203.992 268.895 205.57 264.835 207.102C264.332 207.331 263.92 207.586 263.509 207.855C263.511 207.87 263.505 207.842 263.392 207.872C262.411 209.92 263.565 209.207 264.419 209.073C264.781 209.182 265.058 209.233 265.405 209.343C265.745 209.296 266.015 209.189 266.389 209.1C267.71 209.074 268.927 209.03 270.234 209.039C270.531 209.141 270.737 209.191 271.024 209.317C275.407 209.616 279.716 209.816 284.005 210.077C285.161 210.148 286.212 210.561 287.391 210.54C289.43 210.502 291.532 210.248 293.696 210.131C294.11 210.26 294.435 210.342 294.823 210.552C295.436 210.888 295.988 211.096 296.633 211.366C299.813 211.608 302.965 211.608 305.97 212.009C310.84 212.66 315.611 213.58 320.432 214.366C320.764 214.42 321.164 214.296 321.53 214.268C324.348 214.046 327.437 212.974 329.635 214.701C329.948 214.947 330.496 214.942 330.967 214.817C334.163 213.968 336.766 214.552 338.917 216.339C339.226 216.596 339.799 216.728 340.221 216.495C343.007 214.959 344.775 216.423 346.965 216.726C349.254 217.042 351.435 218.132 354.388 216.257C354.525 216.34 354.61 216.374 354.677 216.543C355.304 216.865 355.941 217.069 356.602 217.213C357.35 217.377 358.122 217.48 358.879 217.621C359.539 217.744 360.167 218.192 360.855 217.955C362.858 217.266 365.214 218.73 365.269 220.506C367.355 220.468 369.304 220.34 371.182 220.432C372.416 220.493 372.536 221.586 371.39 222.916C369.402 225.222 369.572 227.296 369.732 229.29C369.904 231.425 369.541 232.146 367.684 232.546C367.36 232.616 367.035 232.698 366.613 232.744C365.569 233.8 365.569 233.8 366.231 234.683C367.449 236.304 366.967 237.679 364.677 238.762C363.375 238.196 362.293 237.214 360.417 239.025C358.297 239.309 356.263 239.702 354.265 239.935C353.449 240.03 352.724 239.742 351.937 239.693C351.527 239.667 350.976 239.567 350.653 239.876C349.817 240.675 349.073 241.681 348.221 242.637C348.151 242.668 348.011 242.736 347.944 242.624C345.645 242.318 343.508 241.646 341.159 242.039C337.403 242.667 333.503 243.876 330.263 242.73C327.383 241.713 323.523 243.342 321.063 241.236C320.741 240.96 319.989 241.364 319.54 241.224C318.294 240.834 317.101 240.327 315.892 239.857C315.674 239.772 315.508 239.543 315.27 239.546C313.964 239.562 313.5 238.735 314.031 236.894C313.058 236.936 312.184 236.681 311.305 237.081C310.025 237.662 309.115 237.654 308.218 237.019C307.414 236.449 306.446 236.06 305.133 237.729C303.741 239.498 303.237 239.345 302.92 237.452C302.832 236.926 302.511 236.3 302.127 236.303C301.766 236.305 301.155 237.035 300.699 237.523C300.23 238.025 299.746 239.029 299.387 239.108C297.937 239.424 296.471 239.653 295.126 239.566C293.385 239.453 291.749 239.021 290.08 238.696C289.7 238.622 289.382 238.396 289.014 238.289C288.271 238.075 287.546 237.801 286.754 237.719C284.999 237.539 282.928 237.978 281.489 237.238C278.504 235.702 274.754 236.792 271.389 236.597C270.813 236.563 270.131 236.853 269.438 236.975C269.379 236.958 269.242 236.971 269.18 236.847C268.623 236.614 268.129 236.504 267.567 236.316C266.954 236.339 266.407 236.44 265.761 236.514C265.511 236.514 265.362 236.54 265.164 236.453C264.693 236.216 264.27 236.092 263.783 235.85C263.242 235.589 262.767 235.447 262.218 235.228C261.207 235.662 260.268 236.172 259.228 236.689C258.994 236.8 258.86 236.903 258.658 236.941C258.337 237.001 258.085 237.125 257.745 237.22C257.535 237.164 257.413 237.138 257.305 236.965C256.735 236.657 256.15 236.495 255.478 236.308C254.987 236.453 254.583 236.624 254.08 236.747C253.766 236.637 253.551 236.573 253.392 236.4C253.28 236.201 253.113 236.112 252.912 235.952C252.818 235.797 252.736 235.753 252.639 235.609C252.144 234.116 251.082 234.659 249.832 235.495C249.066 235.65 248.409 235.779 247.659 235.857C246.917 235.881 246.266 235.954 245.53 236.024C245.321 236.052 245.198 236.083 245.016 236.02C244.497 236.038 244.038 236.152 243.49 236.204C243.188 236.097 242.975 236.053 242.716 235.909C242.001 236.042 241.33 236.276 240.583 236.52C240.506 236.531 240.35 236.635 240.249 236.602C239.618 236.721 239.087 236.873 238.483 236.966C238.155 236.868 237.901 236.829 237.593 236.716C237.222 236.559 236.906 236.476 236.505 236.343C236.276 236.311 236.131 236.329 235.945 236.249C235.664 236.278 235.424 236.405 235.078 236.506C234.399 236.406 233.825 236.332 233.181 236.163C232.793 236.073 232.474 236.08 232.083 236.021C231.582 236.061 231.154 236.166 230.655 236.218C230.228 236.269 229.873 236.374 229.41 236.481C229.003 236.536 228.704 236.59 228.352 236.542C227.661 236.579 227.024 236.717 226.279 236.826C225.933 236.802 225.696 236.807 225.399 236.697C223.813 236.505 222.285 236.427 220.676 236.271C219.007 236.24 217.42 236.288 215.755 236.293C215.549 236.244 215.423 236.239 215.262 236.085C214.655 235.808 214.083 235.68 213.437 235.489C212.981 235.353 212.598 235.279 212.12 235.103C211.334 234.603 210.643 234.203 209.935 233.711C209.843 233.556 209.767 233.492 209.71 233.293C209.623 232.72 209.517 232.283 209.425 231.788C209.439 231.729 209.38 231.671 209.406 231.554C209.256 231.272 209.081 231.108 208.842 230.856C208.361 230.862 207.944 230.954 207.416 231.053C206.78 231.168 206.255 231.278 205.638 231.333C203.846 231.932 202.071 232.207 201.737 230.299C201.315 227.89 200.015 227.365 198.089 227.582C196.883 227.718 196.061 227.288 195.82 225.867C195.747 225.441 195.399 225.201 195.165 224.763C195.134 224.423 195.115 224.196 195.218 223.854C195.886 221.968 196.432 220.196 197.045 218.322C197.227 218.004 197.342 217.789 197.58 217.513C198.304 216.216 198.905 214.981 199.523 213.643C199.552 213.397 199.512 213.3 199.485 213.103C198.964 212.236 198.439 211.435 197.783 210.819C196.269 209.399 196.523 207.949 198.856 205.701C199.098 205.693 199.244 205.66 199.433 205.703C199.643 205.772 199.81 205.765 200.052 205.829C200.257 205.941 200.387 205.984 200.534 206.14C200.76 206.367 200.969 206.482 201.227 206.722C202.075 207.393 202.785 208.244 204.269 206.765C204.656 206.446 204.928 206.175 205.303 205.928C205.874 205.329 206.401 204.742 206.802 204.073C208.011 202.053 208.534 201.813 209.712 202.841C210.338 203.387 210.957 203.773 211.931 202.268C212.262 201.758 212.834 201.438 213.391 200.964C213.585 200.763 213.683 200.628 213.792 200.531C213.802 200.568 213.858 200.602 213.878 200.691C214.179 200.633 214.461 200.485 214.851 200.313C215.886 199.651 216.829 199.071 217.738 198.365C220.236 196.424 222.536 195.539 224.594 197.115C224.882 196.319 225.099 195.721 225.323 195.101C223.138 195.054 221.18 194.917 219.161 195.004C218.056 195.053 216.848 195.481 215.577 195.739C212.933 196.137 210.399 196.528 207.861 196.935C207.225 197.037 206.56 197.262 205.942 197.302C202.797 197.509 199.663 197.673 196.429 197.831C195.901 197.994 195.469 198.179 194.992 198.258C192.834 198.963 190.723 199.693 188.609 200.613C187.344 201.163 186.145 201.823 185.532 200.442C185.409 200.166 185.111 199.871 184.849 199.946C182.623 200.589 180.525 200.864 178.421 200.805C177.384 200.775 175.828 202.374 174.909 201.175C174.789 201.017 174.414 201.123 174.145 201.203C172.424 201.721 170.692 202.317 168.976 202.79C164.709 203.965 160.444 205.125 156.187 206.222C151.554 207.416 146.921 208.598 142.312 209.636C141.222 209.882 140.235 209.51 139.189 209.462C138.004 209.406 136.816 209.359 135.608 209.382C135.099 209.391 134.527 209.627 133.998 209.696C131.297 210.05 128.602 210.38 125.901 210.735C125.837 210.744 125.732 210.94 125.591 211.116C125.537 211.184 125.582 211.305 125.574 211.197C125.504 211.096 125.442 211.103 125.321 211.03C125.15 211.074 125.037 211.198 124.843 211.353C124.653 211.434 124.546 211.497 124.342 211.491C123.213 211.464 122.841 210.785 122.779 209.56C122.753 209.068 122.189 208.861 121.871 208.524C121.656 208.919 121.441 209.313 121.135 209.828C120.955 210.13 120.866 210.312 120.643 210.527C119.858 210.592 119.205 210.623 118.552 210.526C118.444 210.133 118.337 209.869 118.3 209.463C117.83 209.11 117.289 208.897 116.654 208.655C116.196 208.688 115.832 208.752 115.41 208.72C114.774 208.74 114.197 208.855 113.619 208.971C113.019 208.691 112.419 208.412 111.682 207.93C111.324 207.641 111.102 207.554 110.861 207.393C110.684 207.271 110.527 207.223 110.288 207.054C108.518 205.966 106.83 204.999 105.12 203.9C104.798 203.367 104.476 202.99 104.198 202.562C103.585 201.617 102.872 200.821 104.156 198.808C104.512 198.25 104.352 196.767 103.967 196.289C103.048 195.148 103.136 193.592 103.764 191.798C104.107 190.816 104.812 189.869 105.32 188.967C104.891 188.293 104.482 187.649 103.944 186.803C105.193 186.238 106.047 185.807 106.896 185.482C107.535 185.237 108.348 184.8 108.767 185.024C109.905 185.63 110.619 185.033 111.545 183.375C112.013 182.538 112.932 181.721 113.675 181.313C115.176 180.488 116.697 179.949 118.27 179.265C118.383 178.33 118.453 177.756 118.477 177.56C120.933 175.913 123.192 174.458 125.421 172.859C125.954 172.477 126.385 171.609 126.863 170.965C126.211 170.932 125.58 170.779 124.898 170.914C124.516 170.989 124.048 171.659 123.62 171.855C122.711 172.272 121.638 172.96 120.93 172.807C119.441 172.487 118.45 173.262 117.522 175.218C117.237 175.817 116.828 176.371 116.398 176.969C116.212 177.037 116.107 177.102 115.913 177.132C115.32 177.07 114.83 176.896 114.317 177.091C113.159 177.533 111.99 178.158 110.75 178.678C110.56 178.736 110.445 178.825 110.258 178.869C110.06 178.833 109.935 178.842 109.844 178.702C109.175 176.895 109.366 176.471 111.479 175.227C111.988 174.964 112.397 174.686 112.923 174.398C114.399 173.618 115.757 172.844 117.117 172.081C119.546 170.718 121.978 169.389 124.404 167.989C125.33 167.454 126.242 166.762 127.219 166.232C127.617 166.233 127.957 166.145 128.386 166.061C128.718 165.887 128.961 165.708 129.295 165.563C129.743 165.49 130.101 165.384 130.549 165.306C131.034 165.081 131.429 164.827 131.831 164.549C131.838 164.527 131.854 164.557 131.933 164.632C132.328 164.688 132.643 164.668 133.04 164.747C135.897 166.166 132.036 167.784 131.873 169.511C132.218 169.569 132.905 169.783 132.96 169.681C134.114 167.529 135.58 168.003 136.876 167.208C137.207 167.005 137.599 166.925 137.861 166.629C138.37 166.054 138.808 165.366 139.275 164.725C138.7 164.684 138.092 164.335 137.555 164.658C135.663 165.794 134.631 165.59 134.529 163.603C135.082 163.09 135.505 162.693 135.998 162.366C136.557 162.251 137.046 162.066 137.646 161.832C138.541 161.131 139.325 160.479 140.207 159.786C140.697 159.517 141.087 159.289 141.56 159.132C141.951 159.188 142.26 159.175 142.611 159.259C142.899 159.259 143.147 159.161 143.506 159.075C143.824 159.157 144.029 159.226 144.204 159.426C144.664 159.44 145.155 159.324 145.771 159.14C146.044 158.929 146.192 158.785 146.41 158.676C146.656 158.628 146.832 158.544 147 158.552C146.991 158.645 147.144 158.559 147.144 158.559C147.144 158.559 147.092 158.416 147.206 158.386C147.398 158.308 147.475 158.26 147.64 158.257C149.156 157.591 150.584 156.879 152.08 156.143C152.149 156.119 152.286 156.078 152.367 156.143C153.039 156.098 153.629 155.988 154.329 155.857C155.054 155.27 155.669 154.705 156.349 154.089C156.412 154.038 156.541 153.939 156.633 153.967C157.292 153.638 157.859 153.281 158.425 152.905C158.425 152.886 158.429 152.922 158.51 152.962C158.849 152.829 159.107 152.656 159.43 152.461C159.495 152.439 159.626 152.395 159.698 152.465C160.108 152.345 160.445 152.156 160.894 151.906C161.359 151.796 161.712 151.747 162.071 151.847C162.83 152.484 162.652 153.372 161.89 154.535C161.268 155.08 160.77 155.548 160.203 156.16C160.122 157.552 160.771 157.226 161.543 156.642C161.555 156.647 161.576 156.613 161.681 156.623C162.988 156.106 163.631 155.282 163.673 153.712C163.688 153.146 164.316 152.319 164.664 151.61C165.004 152.008 165.377 152.367 165.672 152.816C165.902 153.166 166.035 153.629 166.25 154.134C166.567 153.653 166.665 153.537 166.723 153.409C166.783 153.277 166.852 153.103 166.837 153C166.552 151.059 167.281 150.015 169.079 149.305C169.847 149.002 170.656 147.863 171.55 147.065C171.859 146.971 172.064 146.914 172.315 146.958C172.566 147.029 172.771 147 173.07 147C173.283 147.082 173.4 147.137 173.509 147.345C174.042 148.161 174.472 148.999 175.698 147.379C176.498 146.323 177.475 145.463 178.376 144.493C178.38 144.47 178.394 144.503 178.486 144.54C180.42 143.875 182.261 143.172 184.2 142.435C184.609 142.242 184.92 142.082 185.258 141.91C185.284 141.898 185.329 141.908 185.395 141.972C185.806 141.944 186.151 141.851 186.575 141.814C186.997 141.733 187.34 141.597 187.788 141.412C188.214 141.075 188.538 140.787 188.95 140.531C189.446 140.299 189.854 140.036 190.376 139.769C190.708 139.786 190.926 139.806 191.182 139.937C191.483 140.11 191.746 140.172 192.105 140.276C192.668 139.822 193.135 139.327 193.686 138.784C193.852 138.631 193.935 138.524 194.115 138.459C194.441 138.486 194.669 138.471 194.963 138.538C195.83 138.103 196.631 137.587 197.535 137.078C198.789 136.309 200.003 135.58 199.822 133.497C199.259 133.782 198.752 134.038 198.134 134.355C197.297 134.694 196.569 134.974 195.775 135.174C195.442 135.262 195.175 135.431 194.878 135.647C194.849 135.694 194.855 135.788 194.815 135.683C194.495 135.585 194.215 135.59 193.859 135.536C193.519 135.657 193.254 135.838 192.875 136.051C191.913 136.222 191.066 136.36 190.194 136.387C189.918 136.311 189.665 136.346 189.305 136.363C188.601 136.526 188.005 136.708 187.372 136.856C187.335 136.822 187.221 136.882 187.152 136.794C186.555 136.879 186.026 137.052 185.395 137.186C184.838 137.106 184.383 137.064 183.883 136.911C181.831 137.365 179.824 137.93 177.716 138.492C177.048 138.761 176.481 139.034 175.908 139.32C175.902 139.335 175.92 139.343 175.857 139.257C175.644 139.206 175.493 139.241 175.267 139.219C174.705 139.298 174.218 139.435 173.658 139.533C173.466 139.503 173.346 139.512 173.169 139.421C172.959 139.335 172.806 139.349 172.583 139.292C171.401 139.729 170.29 140.237 169.117 140.73C169.055 140.715 168.911 140.778 168.845 140.702C168.298 140.902 167.817 141.179 167.308 141.444C167.282 141.432 167.226 141.503 167.154 141.429C163.337 142.099 159.597 142.823 155.846 143.605C155.113 143.758 154.341 144.134 153.499 144.399C153.166 144.555 152.92 144.719 152.593 144.855C152.317 144.901 152.123 144.976 151.83 145.022C149.648 145.586 147.56 146.215 145.483 146.76C142.828 147.457 140.182 148.086 137.483 148.712C137.434 148.68 137.301 148.706 137.241 148.6C134.511 148.943 131.858 149.296 129.167 149.876C127.464 150.244 125.703 150.948 123.968 151.505C123.424 151.679 122.855 151.97 122.339 152.028C119.317 152.366 116.439 152.356 113.135 153.722C109.648 155.165 106.187 155.535 102.746 156.2C101.153 156.508 99.6421 156.381 98.0842 156.489C96.3441 156.61 94.6215 156.621 92.8397 156.957C90.3884 157.419 87.8371 158.376 85.4216 158.699C81.7148 159.194 78.0843 159.34 74.4269 159.612C72.0663 159.788 69.4343 160.551 67.4211 159.945C63.6414 158.805 60.2324 156.843 56.6393 155.281C56.1946 155.088 55.5515 155.009 55.0287 155.297C53.4687 156.157 52.538 155.588 52.095 154.367C51.7311 153.364 51.2572 153.53 50.4942 154.262C49.0073 155.689 48.1678 155.401 47.7097 153.952C47.0508 151.867 46.2687 149.966 44.3629 149.307C43.8774 149.14 43.5494 148.237 43.5592 147.49C43.586 145.451 43.7676 143.333 44.0303 141.205C44.1084 140.573 44.5769 139.702 45.0266 139.144C45.2493 138.867 45.9326 138.882 46.2384 139.06C47.0865 139.556 47.3667 138.6 47.8297 137.735C48.0341 137.471 48.1586 137.281 48.3991 137.042C48.5584 136.899 48.6017 136.804 48.7026 136.724C48.7603 136.738 48.8921 136.71 48.9494 136.812C49.7227 137.967 50.6242 137.892 51.8378 136.242C51.8999 136.186 52.0234 136.071 52.1103 136.098C52.4526 135.93 52.7081 135.736 52.971 135.527C52.9785 135.513 52.9633 135.498 53.058 135.535C53.6556 135.355 54.1585 135.138 55.0954 134.733C54.5923 134.191 54.3137 133.89 53.9759 133.446C53.744 133.08 53.5712 132.858 53.4675 132.54C53.6171 132.223 53.6976 132.003 53.8843 131.828C55.8862 130.125 57.7819 128.377 59.6776 126.628C59.7037 126.431 59.7297 126.233 59.7558 126.036C59.2135 126.157 58.4168 126.064 58.1706 126.433C56.7254 128.599 56.0372 127.69 55.2934 126.796C55.3083 126.709 55.3127 126.543 55.4326 126.411C55.6274 126.056 55.7022 125.833 55.8885 125.483C56.2703 124.984 56.5406 124.612 56.913 124.25C59.2257 122.615 61.201 122.888 62.0759 124.816C62.2545 125.21 62.9933 125.541 63.2183 125.325C64.0952 124.483 65.0101 123.5 65.6544 122.407C67.3578 119.519 67.4566 119.39 69.5833 119.983C70.7313 120.302 72.536 119.182 73.6393 117.451C74.105 117.099 74.4711 116.823 74.9021 116.615C75.5094 116.419 76.0519 116.155 76.6955 115.883C76.938 115.828 77.0793 115.78 77.2799 115.828C77.9246 115.811 78.5101 115.697 79.1803 115.62C79.3923 115.669 79.5193 115.683 79.6217 115.823C80.6204 115.603 81.6439 115.258 82.7343 114.875C82.8012 114.839 82.8994 114.687 83.0104 114.659C83.6684 114.216 84.2154 113.8 84.8718 113.329C85.2663 113.08 85.5516 112.886 85.8715 112.807C86.2027 112.852 86.4992 112.784 86.8141 112.742C86.8323 112.769 86.901 112.757 86.9936 112.806C87.8922 112.36 88.6983 111.865 89.5994 111.342C89.8219 111.252 89.9495 111.192 90.1302 111.228C90.4803 111.284 90.7775 111.244 91.157 111.262C91.7988 111.136 92.3584 110.951 92.9239 110.78C92.9298 110.795 92.9405 110.754 93.0161 110.82C94.0802 110.301 95.0688 109.716 96.1321 109.158C96.3272 109.144 96.4475 109.102 96.6307 109.113C96.9293 109.051 97.1649 108.938 97.5056 108.845C97.769 108.815 97.9272 108.765 98.1553 108.787C98.9387 108.688 99.6521 108.516 100.464 108.361C101.498 107.74 102.435 107.103 103.463 106.509C104.819 105.987 106.083 105.422 107.346 104.856C107.368 104.579 107.389 104.301 107.411 104.023C106.098 104.112 104.869 103.744 103.242 105.208C103.179 105.204 103.04 105.258 102.973 105.191C102.637 105.22 102.367 105.316 101.994 105.408C101.233 105.654 100.575 105.903 99.8426 106.087C99.4295 106.036 99.0907 106.05 98.6553 106.007C97.8689 105.888 97.1789 105.826 96.4248 105.698C96.0937 105.731 95.8267 105.83 95.4817 105.91C95.285 105.919 95.1665 105.947 94.9927 105.918C94.6605 106.016 94.3835 106.172 94.0131 106.364C93.7608 106.557 93.602 106.715 93.3691 106.889C93.295 106.905 93.1446 106.996 93.0676 106.936C91.8864 107.186 90.7821 107.496 89.5765 107.768C88.6163 107.881 87.7575 108.033 86.8535 108.073C85.8883 108.275 84.9286 108.763 84.0563 108.867C81.984 109.114 79.92 109.289 77.9211 109.267C77.0646 109.258 76.3424 108.75 75.6233 108.353C74.4201 107.69 73.4318 106.19 72.0608 106.373C69.2383 106.75 67.3712 105.471 65.5791 103.979C64.7659 103.302 64.6453 101.402 63.7286 101.104C62.2886 100.638 61.8166 98.9716 60.6749 98.3336C58.4674 97.0998 58.9354 94.0709 58.9675 91.3092C58.9732 90.8191 59.7358 89.5261 60.0316 89.4483C61.5745 89.0428 61.6626 88.0647 61.6779 86.6944C61.7007 84.6438 64.9659 80.8067 66.2678 81.4774C67.5035 82.1139 69.1811 82.5631 68.9922 85.0961C68.9944 85.1099 68.9752 85.1389 68.8637 85.2333C68.6381 85.6111 68.5239 85.8945 68.3454 86.3361C68.6346 87.8792 69.3287 87.7093 70.26 86.1843C70.6804 85.4959 71.0241 84.7549 71.5211 83.9588C71.8647 83.6778 72.0898 83.4759 72.2958 83.3302C72.2767 83.3865 72.3187 83.4599 72.3847 83.5104C73.1811 82.9293 73.9115 82.2977 74.7228 81.7384C74.9557 81.8112 75.1077 81.8116 75.3219 81.9073C76.3329 81.9866 77.2817 81.9706 78.3076 81.9961C78.5071 82.0478 78.6295 82.058 78.7298 82.1905C79.3398 82.0705 79.9719 81.8283 80.6939 81.5855C80.9047 81.4885 81.0256 81.3921 81.2256 81.3294C81.5609 81.2242 81.8171 81.085 82.0915 80.9084C82.1097 80.8709 82.0719 80.8314 82.1805 80.8718C83.0521 81.1315 83.8151 81.351 84.6413 81.6756C85.1363 81.7322 85.7408 81.8949 85.9727 81.6021C87.9421 79.1152 89.5729 79.1476 91.2021 80.1285C91.5625 80.3363 91.8608 80.4288 92.221 80.6027C93.0554 80.5079 93.8279 80.3317 94.6646 80.1433C94.7288 80.1311 94.8316 79.9876 94.9506 79.9551C95.7513 79.0913 96.433 78.2602 97.2258 77.3696C97.6137 77.0645 97.8904 76.8188 98.2762 76.5934C99.4603 76.7263 100.494 77.0241 101.626 76.8839C102.332 76.7965 103.187 76.0478 104.083 75.5365C104.307 75.3309 104.424 75.1847 104.642 75.0339C105.015 74.8388 105.287 74.6482 105.629 74.4702C105.7 74.4827 105.858 74.3742 105.92 74.4287C106.276 74.3507 106.57 74.2181 106.968 74.0583C107.181 73.8953 107.291 73.7596 107.412 73.6076C107.423 73.5912 107.447 73.5992 107.514 73.6689C107.858 73.6014 108.135 73.4642 108.494 73.3597C108.838 73.251 109.101 73.1096 109.43 72.987C109.496 73.0059 109.652 72.9069 109.731 72.9547C110.242 72.8272 110.673 72.652 111.122 72.5012C111.139 72.5256 111.204 72.498 111.3 72.5471C112.26 72.3967 113.124 72.1973 114.04 72.0575C114.205 72.0964 114.317 72.0756 114.511 72.0994C115.027 71.9318 115.461 71.7195 115.938 71.5284C115.98 71.5495 116.085 71.4587 116.178 71.4923C116.914 71.2103 117.557 70.8946 118.199 70.6087C118.198 70.6384 118.204 70.5782 118.266 70.6822C118.965 70.6825 119.602 70.5787 120.314 70.5281C120.709 70.621 121.028 70.6608 121.437 70.7699C121.769 70.7021 122.01 70.565 122.306 70.4494C122.459 70.4461 122.544 70.3771 122.672 70.3503C123.022 70.2402 123.317 70.0435 123.717 69.8298C124.035 69.6942 124.249 69.5755 124.521 69.5511C125.038 69.4716 125.496 69.2978 126.024 69.1781C126.343 69.1222 126.592 69.0122 126.825 68.8857C126.809 68.8691 126.851 68.8859 126.905 68.9908C127.336 69.0153 127.714 68.9348 128.166 68.8939C128.492 68.7992 128.742 68.6648 129.092 68.5423C129.546 68.3473 129.902 68.1405 130.337 67.9782C130.696 67.9248 130.976 67.8268 131.276 67.7615C131.297 67.7942 131.381 67.7608 131.473 67.8157C132.396 67.6523 133.226 67.4341 134.16 67.2255C135.14 66.8838 136.017 66.5325 136.989 66.2185C137.441 66.2893 137.797 66.3227 138.236 66.4332C141.211 65.9177 144.103 65.325 146.995 64.7323C147.339 64.5929 147.684 64.4534 148.218 64.3141C148.661 64.1258 148.917 63.9375 149.172 63.7491C149.172 63.7491 149.179 63.7105 149.255 63.8C149.832 63.6455 150.333 63.4014 150.833 63.1572C150.944 63.0771 151.054 62.997 151.336 62.9716C152.318 63.0032 153.129 62.9801 153.939 62.957C154.528 62.7503 155.117 62.5435 155.904 62.4098C158.157 63.0876 160.313 63.1453 162.84 61.2215C162.84 61.2215 162.993 61.2197 163.148 61.2998C166.464 61.1916 169.616 61.0413 172.797 60.7752C173.29 60.7339 173.915 60.162 174.479 59.8355C174.588 59.7599 174.697 59.6843 174.969 59.6746C177.324 59.5648 179.749 58.8532 181.639 59.3702C183.382 59.8471 185.108 59.4266 186.994 58.7959C187.108 58.8352 187.223 58.8744 187.423 59.0657C188.701 58.8061 189.892 58.3944 191.083 57.9828C191.358 58.096 191.633 58.2092 192.016 58.5062C194.35 59.543 196.889 58.8946 199.572 57.5599C199.847 57.6741 200.122 57.7882 200.511 58.0826C201.92 58.4864 203.148 59.1769 204.525 58.8244C206.606 58.2919 208.315 58.2737 209.603 59.6566C210.203 60.3011 210.794 61.1117 211.618 61.2687C213.039 61.5395 213.315 62.3327 211.895 64.6177C213.214 64.4846 214.265 64.398 215.331 64.2443C215.455 64.2265 215.809 63.7433 215.796 63.6367C215.757 63.3177 215.665 62.9055 215.455 62.8468C215.094 62.7463 214.496 63.0816 214.248 62.8656C214.038 62.6837 214.036 61.7137 214.195 61.5456C215.747 59.9009 217.038 60.4358 218.15 60.8584C218.591 61.026 218.41 62.5073 218.474 63.4119C218.53 64.2066 218.252 65.4277 218.611 65.7688C219.713 66.8184 219.375 68.0952 218.39 69.9529C217.659 71.3331 217.123 72.8942 216.768 74.3498C216.238 76.5261 215.806 78.6537 214.139 80.6356C213.802 80.9963 213.577 81.3121 213.351 81.6279C213.351 81.6279 213.354 81.668 213.253 81.6272C212.441 82.1998 211.73 82.8133 211.019 83.4267C211.019 83.4267 211.02 83.4671 210.928 83.404C209.806 84.1308 208.775 84.9208 207.744 85.7108C207.744 85.7108 207.605 85.8682 207.436 85.9458C206.422 86.9307 205.577 87.838 204.732 88.7454C204.562 89.0148 204.391 89.2843 204.026 89.6799C203.296 90.3408 202.759 90.8755 202.223 91.4102C202.223 91.4102 202.083 91.5687 201.906 91.6523C199.018 94.9527 196.411 98.5989 192.772 98.4628C191.953 99.0988 191.243 99.682 190.425 100.31C188.15 101.555 185.984 102.754 183.818 103.954C183.738 104.228 183.658 104.501 183.578 104.775C184.005 105.015 184.383 105.555 184.866 105.444C187.235 104.901 189.646 104.102 192.008 103.591C192.573 103.469 193.01 104.104 193.477 104.47C193.449 104.549 193.432 104.703 193.37 104.825C193.307 105.026 193.305 105.105 193.234 105.316C193.073 105.624 192.982 105.799 192.785 105.989C192.499 106.207 192.319 106.411 192.124 106.609C192.11 106.602 192.09 106.647 192.004 106.619C191.583 106.814 191.248 107.038 190.823 107.281C190.554 107.41 190.375 107.518 190.096 107.599C187.782 107.343 185.021 109.444 183.006 108.306C182.77 108.173 182.235 108.402 181.887 108.665C180.463 109.742 179.485 109.441 178.487 108.85C177.321 108.16 175.964 107.988 174.211 109.596C173.849 109.776 173.586 109.919 173.236 110.012C171.858 110.341 170.567 110.72 169.215 111.101C169.155 111.103 169.026 111.157 168.948 111.11C168.604 111.225 168.338 111.387 167.96 111.56C166.776 111.732 165.704 111.893 164.579 111.966C164.262 111.989 163.998 112.099 163.67 112.222C163.605 112.235 163.474 112.301 163.41 112.229C163.078 112.281 162.809 112.405 162.477 112.543C162.415 112.558 162.288 112.627 162.209 112.577C161.71 112.755 161.291 112.985 160.81 113.215C160.748 113.215 160.616 113.258 160.542 113.193C160.047 113.377 159.626 113.626 159.139 113.884C159.073 113.893 158.937 113.944 158.858 113.883C157.568 114.438 156.357 115.054 155.146 115.67C155.122 116.003 155.097 116.336 155.073 116.668C156.721 116.335 158.37 116.003 160.103 115.672C160.306 115.647 160.425 115.621 160.613 115.662C160.947 115.569 161.211 115.408 161.548 115.229C161.62 115.211 161.767 115.133 161.825 115.211C162.145 115.17 162.409 115.05 162.735 114.93C162.798 114.929 162.932 114.881 162.994 114.953C163.323 114.916 163.591 114.807 163.966 114.708C164.367 114.723 164.661 114.728 165.009 114.831C165.553 114.775 166.045 114.621 166.627 114.446C166.902 114.352 167.086 114.28 167.353 114.273C168.813 113.941 170.191 113.542 171.677 113.094C172.43 112.739 173.073 112.434 173.783 112.194C174.101 112.111 174.354 111.963 174.716 111.814C175.037 111.819 175.25 111.826 175.51 111.948C176.059 111.911 176.563 111.759 177.161 111.61C177.523 111.547 177.79 111.48 178.097 111.537C178.88 111.521 179.614 111.466 180.367 111.226C183.204 110.325 185.834 110.884 188.9 109.108C189.687 109.283 190.378 109.389 191.144 109.543C191.488 109.46 191.756 109.331 192.122 109.215C192.428 109.226 192.635 109.225 192.917 109.335C193.907 109.878 194.632 111.029 196.24 109.209C197.266 108.793 198.18 108.441 199.146 108.168C199.453 108.197 199.708 108.148 200.043 108.108C200.24 108.091 200.357 108.064 200.548 108.094C200.886 107.989 201.15 107.827 201.503 107.658C201.777 107.561 201.962 107.471 202.226 107.44C202.741 107.389 203.176 107.28 203.687 107.22C204.058 107.348 204.354 107.427 204.626 107.649C204.975 108.245 205.348 108.7 205.721 109.154C206.195 108.481 206.668 107.808 207.236 107.036C207.574 106.668 207.817 106.397 208.135 106.136C208.266 106.13 208.321 106.115 208.444 106.192C208.879 106.352 209.246 106.42 209.699 106.543C211.002 106.287 212.217 105.974 213.433 105.662C213.695 105.611 213.958 105.561 214.25 105.632C214.887 105.626 215.494 105.5 216.101 105.373C216.376 105.326 216.651 105.279 217.071 105.362C217.886 105.453 218.556 105.414 219.227 105.374C219.351 105.373 219.475 105.372 219.609 105.497C221.256 105.336 222.893 105.05 224.53 104.765ZM209.901 134.161C209.901 134.161 209.9 134.149 209.712 134.097C209.385 134.393 209.057 134.689 208.737 135.054C208.737 135.054 208.724 134.989 208.525 134.969C207.491 135.583 206.458 136.197 205.202 136.902C203.538 137.98 201.882 139.389 200.207 139.165C200.018 139.14 199.592 139.759 199.291 140.098C199.291 140.098 199.3 140.065 199.215 139.92C199.157 139.93 199.098 139.94 198.845 139.893C197.432 140.614 196.019 141.355 194.606 142.04C194.305 142.185 194.001 142.126 193.698 142.165C192.878 142.274 192.057 142.384 191.236 142.494C191.134 142.874 191.032 143.254 190.93 143.634C191.576 143.642 192.2 143.812 192.871 143.628C195.021 143.038 197.187 142.35 199.354 141.617C199.752 141.482 200.185 140.959 200.719 140.818C202.243 140.192 203.766 139.567 205.496 138.936C206.215 138.528 206.934 138.12 207.675 137.636C207.675 137.636 207.672 137.708 207.853 137.789C208.968 137.148 210.084 136.508 211.326 135.773C211.326 135.773 211.45 135.669 211.637 135.706C212.042 135.416 212.447 135.126 212.851 134.786C212.851 134.786 212.856 134.834 213.047 134.893C214.446 134.428 215.843 134.023 217.246 133.46C217.64 133.302 218.055 132.68 218.46 132.27C218.224 131.99 218.049 131.441 217.739 131.475C216.35 131.631 214.922 131.952 213.311 132.2C213.106 132.212 212.902 132.225 212.512 132.176C212.041 132.581 211.57 132.985 210.968 133.484C210.968 133.484 210.841 133.593 210.665 133.543C210.41 133.745 210.155 133.947 209.901 134.161ZM62.0714 129.116C63.6155 128.998 65.1618 128.796 66.7487 127.127C65.9583 126.152 63.6887 127.081 61.6702 129.168C61.4529 129.247 61.2356 129.327 61.0183 129.407C61.028 129.504 61.0378 129.601 61.0475 129.698C61.3153 129.501 61.583 129.304 62.0714 129.116ZM248.351 112.683C249.243 112.619 250.135 112.555 251.027 112.491C251.18 112.205 251.332 111.918 251.485 111.632C251.133 111.153 250.903 110.309 250.402 110.274C249.486 110.212 248.51 110.812 248.351 112.683ZM50.2906 151.184C50.8268 150.431 51.6726 149.551 50.7348 149.124C50.4413 148.991 49.8101 149.509 49.3334 149.729C49.5647 150.262 49.7959 150.795 50.2906 151.184ZM202.632 216.165C203.461 216.468 203.983 215.994 204.325 214.569C203.347 214.782 202.474 214.972 201.602 215.162C201.54 215.305 201.477 215.449 201.415 215.592C201.744 215.777 202.073 215.962 202.632 216.165ZM361.891 223.624C362.008 223.286 362.25 222.659 362.223 222.652C361.539 222.466 360.826 222.346 360.118 222.214C360.003 222.487 359.887 222.761 359.771 223.034C360.401 223.231 361.032 223.427 361.891 223.624Z" fill="#FF2A60" fill-opacity="0.1"/>
<path fill-rule="evenodd" clip-rule="evenodd" d="M328 155C328 218.513 276.513 270 213 270C193.077 270 174.338 264.934 158 256.02L98 270L113.097 212C103.491 195.199 98 175.74 98 155C98 91.4873 149.487 40 213 40C276.513 40 328 91.4873 328 155ZM308 155C308 207.467 265.467 250 213 250C193.748 250 175.833 244.273 160.866 234.43L125 243L134.147 208C123.951 192.861 118 174.625 118 155C118 102.533 160.533 60 213 60C265.467 60 308 102.533 308 155Z" fill="#FF2A60"/>
<path d="M187 110.408C187 103.365 197 103.365 197 110.408C197 144.616 146 144.612 146 109.905C146 103.365 156 103.365 156 109.905C156 131.534 187 131.613 187 110.408Z" fill="#FF2A60"/>
<path d="M240.5 198.89C240.5 205.932 250.5 205.933 250.5 198.89C250.5 154.891 173 154.987 173 199.486C173 206.025 183.001 206.025 183.001 199.486C183.001 166.562 240.5 166.391 240.5 198.89Z" fill="#FF2A60"/>
<path d="M238 111.375C238 104.375 228 104.375 228 111.375C228 145.379 279 145.375 279 110.875C279 104.375 269 104.375 269 110.875C269 132.375 238 132.454 238 111.375Z" fill="#FF2A60"/>
<path d="M414.389 244.144C404.819 239.242 393.843 241.484 389.922 249.139C387.337 254.187 388.314 260.398 392.436 265.619L387.933 274.411L400.761 272.207C410.186 276.721 420.794 274.416 424.634 266.918C428.555 259.262 423.959 249.045 414.389 244.144ZM401.944 268.442L401.366 268.146L394.96 269.247L397.108 265.052L396.215 264.053C392.468 259.867 391.388 254.833 393.393 250.917C396.334 245.174 404.956 243.694 412.611 247.615C420.267 251.536 424.104 259.397 421.163 265.14C418.221 270.883 409.6 272.363 401.944 268.442Z" fill="#FF2A60"/>
<path d="M409.098 250.197L412.569 251.975L408.124 260.653L404.653 258.875L409.098 250.197ZM403.764 260.611L407.235 262.389L405.457 265.86L401.986 264.082L403.764 260.611Z" fill="#FF2A60"/>
<path d="M34.635 221.97C33.1469 218.729 30.4323 216.212 27.0884 214.972C23.7446 213.733 20.0453 213.873 16.8044 215.361C13.5635 216.849 11.0465 219.564 9.8071 222.907C8.56769 226.251 8.70741 229.951 10.1955 233.192C11.6836 236.432 14.3982 238.949 17.7421 240.189C21.086 241.428 24.7853 241.289 28.0262 239.8C31.267 238.312 33.784 235.598 35.0234 232.254C36.2629 228.91 36.1231 225.211 34.635 221.97ZM37.69 220.567C39.5501 224.618 39.7247 229.242 38.1755 233.422C36.6262 237.602 33.48 240.995 29.4289 242.855C27.423 243.776 25.2553 244.293 23.0496 244.377C20.844 244.46 18.6435 244.108 16.5738 243.341C12.3939 241.792 9.0007 238.645 7.14057 234.594C5.28044 230.543 5.1058 225.919 6.65505 221.739C8.2043 217.559 11.3506 214.166 15.4017 212.306C17.4076 211.385 19.5752 210.868 21.7809 210.785C23.9866 210.701 26.1871 211.053 28.2567 211.82C30.3264 212.588 32.2247 213.755 33.8433 215.256C35.4618 216.756 36.7689 218.561 37.69 220.567ZM24.956 219.016C26.1779 218.455 27.7381 219.033 28.2992 220.255C28.8603 221.477 28.282 223.037 27.0601 223.598C25.8381 224.16 24.2779 223.581 23.7168 222.359C23.1557 221.137 23.734 219.577 24.956 219.016ZM17.6069 225.165C18.168 226.387 17.5897 227.947 16.3678 228.508C15.1458 229.069 13.5856 228.491 13.0245 227.269C12.4634 226.047 13.0417 224.487 14.2637 223.926C15.4857 223.364 17.0458 223.943 17.6069 225.165ZM23.818 230.636C26.4911 229.408 29.3484 229.428 31.4876 230.462L30.3145 233.627C29.1151 232.827 27.1301 232.814 25.2207 233.691C23.3114 234.567 22.0277 236.081 21.8523 237.512L18.6874 236.339C19.2976 234.043 21.1449 231.863 23.818 230.636Z" fill="#FF2A60"/>
<path d="M356.612 38.0327L382.574 24.7308L389.225 37.7115L386.629 39.0417L381.308 28.6571L360.539 39.2987L366.914 51.742L370.079 41.9261L380.708 45.3531L379.813 48.129L371.96 45.5971L368.795 55.413L371.18 60.0679L381.565 54.7471L382.895 57.3432L369.914 63.9942L356.612 38.0327ZM377.523 35.513C377.179 35.6894 376.918 35.9953 376.8 36.3635C376.681 36.7317 376.713 37.1319 376.89 37.4762C377.066 37.8205 377.372 38.0805 377.74 38.1993C378.108 38.318 378.509 38.2856 378.853 38.1092C379.197 37.9328 379.457 37.6268 379.576 37.2587C379.695 36.8905 379.662 36.4903 379.486 36.146C379.31 35.8017 379.004 35.5416 378.635 35.4229C378.267 35.3042 377.867 35.3366 377.523 35.513ZM374.294 38.8064C373.764 37.7736 373.667 36.5728 374.023 35.4683C374.38 34.3638 375.16 33.446 376.193 32.9169C377.225 32.3877 378.426 32.2904 379.531 32.6466C380.635 33.0027 381.553 33.783 382.082 34.8158C382.611 35.8486 382.709 37.0493 382.352 38.1538C381.996 39.2583 381.216 40.1761 380.183 40.7053C379.15 41.2345 377.95 41.3317 376.845 40.9756C375.741 40.6195 374.823 39.8392 374.294 38.8064ZM383.493 45.1665L389.046 46.9578L390.835 41.4047L393.613 42.3004L391.822 47.8529L397.375 49.6423L396.479 52.4202L390.927 50.6288L389.137 56.1819L386.359 55.2863L388.151 49.7338L382.598 47.9444L383.493 45.1665Z" fill="#FF2A60"/>
<path d="M53 3.4C49.3931 3.4 45.9338 4.83285 43.3833 7.38335C40.8329 9.93384 39.4 13.3931 39.4 17C39.4 20.6069 40.8329 24.0662 43.3833 26.6167C45.9338 29.1671 49.3931 30.6 53 30.6C56.6069 30.6 60.0662 29.1671 62.6167 26.6167C65.1671 24.0662 66.6 20.6069 66.6 17C66.6 13.3931 65.1671 9.93384 62.6167 7.38335C60.0662 4.83285 56.6069 3.4 53 3.4ZM36 17C36 7.6109 43.6109 0 53 0C62.3891 0 70 7.6109 70 17C70 26.3891 62.3891 34 53 34C43.6109 34 36 26.3891 36 17ZM45.8481 9.8481C46.1669 9.5294 46.5992 9.35036 47.05 9.35036C47.5008 9.35036 47.9331 9.5294 48.2519 9.8481L53 14.5962L57.7481 9.8481C57.9049 9.68573 58.0925 9.55622 58.2999 9.46713C58.5073 9.37803 58.7304 9.33114 58.9561 9.32917C59.1818 9.32721 59.4057 9.37023 59.6146 9.4557C59.8235 9.54118 60.0134 9.66741 60.173 9.82703C60.3326 9.98665 60.4588 10.1765 60.5443 10.3854C60.6298 10.5943 60.6728 10.8182 60.6708 11.0439C60.6689 11.2696 60.622 11.4927 60.5329 11.7001C60.4438 11.9075 60.3143 12.0951 60.1519 12.2519L55.4038 17L60.1519 21.7481C60.4616 22.0687 60.6329 22.4981 60.629 22.9439C60.6252 23.3896 60.4464 23.816 60.1312 24.1312C59.816 24.4464 59.3896 24.6252 58.9439 24.629C58.4981 24.6329 58.0687 24.4616 57.7481 24.1519L53 19.4038L48.2519 24.1519C47.9313 24.4616 47.5019 24.6329 47.0561 24.629C46.6104 24.6252 46.184 24.4464 45.8688 24.1312C45.5536 23.816 45.3748 23.3896 45.371 22.9439C45.3671 22.4981 45.5384 22.0687 45.8481 21.7481L50.5962 17L45.8481 12.2519C45.5294 11.9331 45.3504 11.5008 45.3504 11.05C45.3504 10.5992 45.5294 10.1669 45.8481 9.8481Z" fill="#FF2A60"/>
</svg>
