<svg width="432" height="325" viewBox="0 0 432 325" fill="none" xmlns="http://www.w3.org/2000/svg">
<path d="M212.003 105.765C212.113 105.804 212.224 105.844 212.429 106.014C214.39 105.991 216.238 105.941 218.138 105.628C218.753 105.527 219.506 104.734 220.195 104.257C222.3 102.292 223.524 103.258 224.697 104.565C224.759 105.584 225.09 106.315 224.892 107.081C224.458 108.759 225.04 108.966 226.175 108.818C226.796 108.964 227.323 109.051 227.932 109.19C228.756 108.969 229.498 108.695 230.415 108.356C229.662 107.932 229.1 107.616 228.433 107.255C227.749 107.111 227.169 107.012 226.651 106.745C227.065 105.948 227.418 105.318 227.771 104.688C227.847 104.616 227.927 104.556 228.082 104.64C230.039 105.133 231.975 105.383 233.775 105.934C234.251 106.08 234.277 107.184 234.569 107.788C234.744 108.151 234.978 108.693 235.287 108.639C236.031 108.511 236.834 108.08 237.613 107.771C237.883 107.891 238.152 108.012 238.536 108.318C238.947 108.651 239.269 108.758 239.536 108.952C241.588 110.443 243.662 111.902 245.659 113.478C246.507 114.148 247.108 115.199 247.961 115.86C249.312 116.906 249.35 117.145 247.801 119.387C247.797 119.392 247.787 119.394 247.693 119.372C247.393 120.087 247.187 120.823 247.003 121.672C247.029 122.198 247.032 122.61 246.923 123.139C246.794 123.839 246.671 124.939 246.778 124.922C247.496 124.81 248.262 124.461 249.078 124.147C249.143 124.104 249.267 123.996 249.373 124.013C249.89 123.681 250.294 123.306 250.712 122.988C251.238 122.588 251.774 122.235 252.306 121.861C252.385 122.547 252.665 123.214 252.494 123.925C252.27 124.854 251.636 125.811 251.278 126.77C250.958 127.629 250.603 128.577 250.57 129.362C250.517 130.637 250.202 131.548 249.132 132.538C248.672 132.964 248.449 133.97 248.13 134.716C248.141 134.718 248.164 134.695 248.067 134.833C248.114 135.616 248.352 136.212 248.381 136.916C248.433 138.199 248.445 139.522 248.297 140.882C248.241 141.392 247.698 142.425 247.37 142.582C245.953 143.26 244.535 143.664 243.114 144.243C242.382 144.54 241.617 144.876 240.914 145.399C239.002 146.821 237.129 148.767 235.214 149.743C232.323 151.217 229.412 151.988 226.505 153.184C225.673 153.526 224.826 154.303 223.881 154.891C223.442 155.147 223.109 155.392 222.72 155.554C222.386 155.529 222.107 155.587 221.758 155.562C218.472 156.645 215.255 157.812 211.942 158.954C211.135 159.401 210.423 159.874 209.604 160.366C209.129 160.575 208.76 160.765 208.354 160.85C207.767 160.918 207.22 161.065 206.669 161.272C201 163.407 195.331 165.552 189.58 167.649C189.079 167.812 188.661 168.02 188.186 168.214C188.13 168.199 188.005 168.203 187.919 168.14C186.716 168.089 185.731 168.594 184.819 170.62C186.276 170.17 187.532 169.782 188.87 169.409C189.065 169.426 189.18 169.428 189.368 169.499C189.791 169.466 190.14 169.364 190.597 169.262C192.659 168.804 194.634 168.24 196.563 167.912C199.502 167.413 202.402 167.104 205.329 166.666C209.814 165.994 214.319 165.233 218.793 164.614C220.285 164.407 221.446 165.299 223.256 164.209C224.325 163.565 225.476 163.812 226.606 163.566C229.396 162.96 232.194 162.3 235.099 161.673C235.368 161.631 235.528 161.577 235.752 161.608C236.856 161.557 237.896 161.422 239.013 161.324C239.346 161.305 239.601 161.249 239.948 161.241C240.691 161.22 241.342 161.152 242.094 161.127C242.502 161.187 242.809 161.204 243.192 161.281C244.484 160.996 245.699 160.65 246.993 160.37C247.217 160.44 247.361 160.445 247.564 160.54C248.287 160.498 248.949 160.366 249.697 160.29C250.455 160.184 251.128 160.022 251.86 159.922C252.103 159.936 252.287 159.886 252.558 159.891C252.796 159.928 252.947 159.912 253.161 159.987C254.754 159.885 256.285 159.692 257.904 159.517C258.256 159.404 258.519 159.274 258.852 159.2C259.192 159.154 259.462 159.053 259.834 158.999C260.621 159.144 261.307 159.241 262.06 159.407C262.546 159.391 262.965 159.306 263.463 159.271C263.814 159.304 264.086 159.287 264.437 159.326C265.031 159.219 265.544 159.056 266.145 158.937C266.448 158.952 266.664 158.923 266.951 158.974C271.294 158.683 275.567 158.312 279.894 157.986C280.041 158.066 280.144 158.057 280.297 158.094C281.211 158.118 282.085 158.05 283.043 158.017C283.254 158.067 283.381 158.081 283.497 158.222C284.599 158.31 285.712 158.271 286.832 158.219C286.838 158.207 286.858 158.206 286.91 158.318C287.964 158.221 288.967 158.011 290.074 157.84C292.703 158.223 295.257 158.493 297.743 158.935C299.589 159.263 301.332 159.851 303.148 160.257C305.572 160.798 305.926 161.764 305.143 165.219C305.004 165.83 305.267 166.795 305.637 166.868C306.853 167.111 307.02 168.085 306.691 169.642C306.549 170.313 306.53 170.966 306.441 171.754C308.31 171.012 308.013 172.391 307.596 173.927C307.24 175.238 307.134 176.616 306.557 177.838C305.844 179.351 304.887 180.973 303.799 182.106C302.715 183.233 301.339 183.812 300.033 184.675C299.898 184.777 299.822 184.838 299.66 184.848C298.657 185.317 297.734 185.799 296.824 186.376C296.23 186.753 295.663 187.316 295.07 187.714C292.197 189.641 289.003 190.153 286.577 194.116C286.281 194.601 285.516 194.812 284.969 195.063C284.305 195.368 283.641 195.544 282.976 195.84C280.385 196.993 277.788 198.27 275.201 199.314C271.565 200.782 267.938 202.06 264.304 203.462C260.337 204.992 256.367 206.57 252.308 208.102C251.804 208.331 251.392 208.586 250.982 208.855C250.984 208.87 250.977 208.842 250.865 208.872C249.884 210.92 251.038 210.207 251.892 210.073C252.254 210.182 252.531 210.233 252.878 210.343C253.218 210.296 253.488 210.189 253.862 210.1C255.183 210.074 256.4 210.03 257.707 210.039C258.003 210.141 258.21 210.191 258.497 210.317C262.879 210.616 267.188 210.816 271.477 211.077C272.634 211.148 273.685 211.561 274.863 211.54C276.903 211.502 279.005 211.248 281.169 211.131C281.582 211.26 281.908 211.342 282.295 211.552C282.909 211.888 283.461 212.096 284.106 212.366C287.285 212.608 290.438 212.608 293.442 213.009C298.313 213.66 303.084 214.58 307.905 215.366C308.237 215.42 308.637 215.296 309.002 215.268C311.82 215.046 314.909 213.974 317.107 215.701C317.421 215.947 317.968 215.942 318.44 215.817C321.635 214.968 324.238 215.552 326.39 217.339C326.699 217.596 327.272 217.728 327.694 217.495C330.48 215.959 332.247 217.423 334.437 217.726C336.727 218.042 338.908 219.132 341.861 217.257C341.998 217.34 342.082 217.374 342.15 217.543C342.776 217.865 343.413 218.069 344.075 218.213C344.823 218.377 345.595 218.48 346.352 218.621C347.012 218.744 347.64 219.192 348.328 218.955C350.331 218.266 352.687 219.73 352.741 221.506C354.827 221.468 356.777 221.34 358.655 221.432C359.889 221.493 360.009 222.586 358.863 223.916C356.874 226.222 357.044 228.296 357.205 230.29C357.377 232.425 357.013 233.146 355.157 233.546C354.833 233.616 354.507 233.698 354.086 233.744C353.041 234.8 353.041 234.8 353.704 235.683C354.921 237.304 354.44 238.679 352.15 239.762C350.847 239.196 349.765 238.214 347.889 240.025C345.77 240.309 343.735 240.702 341.737 240.935C340.922 241.03 340.197 240.742 339.41 240.693C339 240.667 338.448 240.567 338.126 240.876C337.29 241.675 336.545 242.681 335.694 243.637C335.624 243.668 335.484 243.736 335.417 243.624C333.118 243.318 330.981 242.646 328.631 243.039C324.875 243.667 320.976 244.876 317.735 243.73C314.856 242.713 310.996 244.342 308.536 242.236C308.213 241.96 307.462 242.364 307.013 242.224C305.767 241.834 304.574 241.327 303.365 240.857C303.147 240.772 302.981 240.543 302.743 240.546C301.437 240.562 300.973 239.735 301.503 237.894C300.531 237.936 299.657 237.681 298.778 238.081C297.498 238.662 296.587 238.654 295.691 238.019C294.886 237.449 293.919 237.06 292.605 238.729C291.213 240.498 290.71 240.345 290.393 238.452C290.305 237.926 289.984 237.3 289.6 237.303C289.239 237.305 288.628 238.035 288.172 238.523C287.703 239.025 287.219 240.029 286.86 240.108C285.41 240.424 283.943 240.653 282.599 240.566C280.858 240.453 279.222 240.021 277.553 239.696C277.173 239.622 276.855 239.396 276.486 239.289C275.743 239.075 275.018 238.801 274.227 238.719C272.472 238.539 270.401 238.978 268.962 238.238C265.976 236.702 262.227 237.792 258.861 237.597C258.286 237.563 257.604 237.853 256.911 237.975C256.851 237.958 256.715 237.971 256.652 237.847C256.096 237.614 255.601 237.504 255.04 237.316C254.426 237.339 253.88 237.44 253.233 237.514C252.984 237.514 252.834 237.54 252.636 237.453C252.166 237.216 251.743 237.092 251.255 236.85C250.715 236.589 250.239 236.447 249.691 236.228C248.679 236.662 247.741 237.172 246.701 237.689C246.466 237.8 246.332 237.903 246.131 237.941C245.81 238.001 245.557 238.125 245.217 238.22C245.008 238.164 244.886 238.138 244.778 237.965C244.208 237.657 243.623 237.495 242.95 237.308C242.46 237.453 242.056 237.624 241.553 237.747C241.238 237.637 241.024 237.573 240.865 237.4C240.753 237.201 240.586 237.112 240.385 236.952C240.291 236.797 240.209 236.753 240.111 236.609C239.617 235.116 238.555 235.659 237.305 236.495C236.539 236.65 235.882 236.779 235.132 236.857C234.389 236.881 233.739 236.954 233.003 237.024C232.794 237.052 232.671 237.083 232.489 237.02C231.97 237.038 231.51 237.152 230.962 237.204C230.661 237.097 230.448 237.053 230.189 236.909C229.473 237.042 228.803 237.276 228.056 237.52C227.979 237.531 227.823 237.635 227.722 237.602C227.09 237.721 226.56 237.873 225.955 237.966C225.628 237.868 225.374 237.829 225.065 237.716C224.694 237.559 224.378 237.476 223.978 237.343C223.748 237.311 223.603 237.329 223.418 237.249C223.137 237.278 222.897 237.405 222.551 237.506C221.872 237.406 221.297 237.332 220.654 237.163C220.266 237.073 219.947 237.08 219.556 237.021C219.055 237.061 218.627 237.166 218.127 237.218C217.701 237.269 217.346 237.374 216.882 237.481C216.476 237.536 216.177 237.59 215.825 237.542C215.134 237.579 214.496 237.717 213.751 237.826C213.406 237.802 213.168 237.807 212.872 237.697C211.286 237.505 209.758 237.427 208.148 237.271C206.479 237.24 204.893 237.288 203.227 237.293C203.022 237.244 202.895 237.239 202.734 237.085C202.128 236.808 201.555 236.68 200.91 236.489C200.454 236.353 200.07 236.279 199.593 236.103C198.807 235.603 198.116 235.203 197.408 234.711C197.316 234.556 197.24 234.492 197.183 234.293C197.096 233.72 196.99 233.283 196.898 232.788C196.911 232.729 196.853 232.671 196.878 232.554C196.729 232.272 196.554 232.108 196.315 231.856C195.834 231.862 195.417 231.954 194.889 232.053C194.253 232.168 193.728 232.278 193.111 232.333C191.319 232.932 189.544 233.207 189.21 231.299C188.788 228.89 187.488 228.365 185.562 228.582C184.356 228.718 183.534 228.288 183.292 226.867C183.22 226.441 182.871 226.201 182.638 225.763C182.607 225.423 182.588 225.196 182.691 224.854C183.359 222.968 183.905 221.196 184.518 219.322C184.699 219.004 184.815 218.789 185.053 218.513C185.776 217.216 186.377 215.981 186.996 214.643C187.024 214.397 186.985 214.3 186.957 214.103C186.437 213.236 185.912 212.435 185.256 211.819C183.742 210.399 183.996 208.949 186.328 206.701C186.57 206.693 186.716 206.66 186.906 206.703C187.116 206.772 187.282 206.765 187.524 206.829C187.73 206.941 187.86 206.984 188.007 207.14C188.233 207.367 188.441 207.482 188.699 207.722C189.547 208.393 190.257 209.244 191.742 207.765C192.128 207.446 192.401 207.175 192.775 206.928C193.347 206.329 193.873 205.742 194.274 205.073C195.484 203.053 196.007 202.813 197.184 203.841C197.81 204.387 198.429 204.773 199.404 203.268C199.735 202.758 200.307 202.438 200.864 201.964C201.057 201.763 201.156 201.628 201.265 201.531C201.275 201.568 201.33 201.602 201.35 201.691C201.652 201.633 201.934 201.485 202.323 201.313C203.359 200.651 204.302 200.071 205.211 199.365C207.709 197.424 210.009 196.539 212.066 198.115C212.355 197.319 212.571 196.721 212.796 196.101C210.611 196.054 208.653 195.917 206.634 196.004C205.529 196.053 204.32 196.481 203.05 196.739C200.406 197.137 197.871 197.528 195.334 197.935C194.698 198.037 194.033 198.262 193.414 198.302C190.27 198.509 187.136 198.673 183.902 198.831C183.374 198.994 182.942 199.179 182.465 199.258C180.307 199.963 178.196 200.693 176.081 201.613C174.816 202.163 173.618 202.823 173.004 201.442C172.882 201.166 172.583 200.871 172.322 200.946C170.096 201.589 167.997 201.864 165.894 201.805C164.856 201.775 163.3 203.374 162.382 202.175C162.261 202.017 161.886 202.123 161.618 202.203C159.896 202.721 158.164 203.317 156.449 203.79C152.182 204.965 147.916 206.125 143.66 207.222C139.026 208.416 134.393 209.598 129.784 210.636C128.694 210.882 127.708 210.51 126.661 210.462C125.477 210.406 124.288 210.359 123.081 210.382C122.571 210.391 122 210.627 121.471 210.696C118.77 211.05 116.074 211.38 113.373 211.735C113.31 211.744 113.204 211.94 113.064 212.116C113.01 212.184 113.054 212.305 113.046 212.197C112.976 212.096 112.914 212.103 112.794 212.03C112.622 212.074 112.509 212.198 112.315 212.353C112.126 212.434 112.019 212.497 111.814 212.491C110.685 212.464 110.314 211.785 110.251 210.56C110.226 210.068 109.662 209.861 109.343 209.524C109.128 209.919 108.914 210.313 108.608 210.828C108.428 211.13 108.338 211.312 108.116 211.527C107.331 211.592 106.678 211.623 106.024 211.526C105.917 211.133 105.809 210.869 105.773 210.463C105.303 210.11 104.762 209.897 104.127 209.655C103.669 209.688 103.305 209.752 102.883 209.72C102.247 209.74 101.669 209.855 101.092 209.971C100.491 209.691 99.8912 209.412 99.1549 208.93C98.7967 208.641 98.5746 208.554 98.3333 208.393C98.1566 208.271 97.9992 208.223 97.7609 208.054C95.9911 206.966 94.3023 205.999 92.5931 204.9C92.2706 204.367 91.9483 203.99 91.6706 203.562C91.0572 202.617 90.3442 201.821 91.6285 199.808C91.9844 199.25 91.8249 197.767 91.4395 197.289C90.5208 196.148 90.6085 194.592 91.2362 192.798C91.5801 191.816 92.2843 190.869 92.7922 189.967C92.3638 189.293 91.9542 188.649 91.4165 187.803C92.6653 187.238 93.5199 186.807 94.3684 186.482C95.0078 186.237 95.8202 185.8 96.2394 186.024C97.3781 186.63 98.0919 186.033 99.018 184.375C99.4857 183.538 100.405 182.721 101.147 182.313C102.649 181.488 104.17 180.949 105.743 180.265C105.856 179.33 105.926 178.756 105.95 178.56C108.406 176.913 110.665 175.458 112.894 173.859C113.426 173.477 113.858 172.609 114.336 171.965C113.683 171.932 113.053 171.779 112.37 171.914C111.989 171.989 111.521 172.659 111.092 172.855C110.184 173.272 109.111 173.96 108.402 173.807C106.914 173.487 105.923 174.262 104.994 176.218C104.71 176.817 104.301 177.371 103.871 177.969C103.685 178.037 103.58 178.102 103.386 178.132C102.793 178.07 102.302 177.896 101.79 178.091C100.631 178.533 99.4623 179.158 98.2229 179.678C98.0331 179.736 97.9181 179.825 97.7303 179.869C97.5327 179.833 97.4078 179.842 97.3166 179.702C96.648 177.895 96.8389 177.471 98.9516 176.227C99.4602 175.964 99.8697 175.686 100.396 175.398C101.871 174.618 103.23 173.844 104.589 173.081C107.019 171.718 109.451 170.389 111.877 168.989C112.803 168.454 113.715 167.762 114.692 167.232C115.09 167.233 115.43 167.145 115.858 167.061C116.19 166.887 116.434 166.708 116.768 166.563C117.216 166.49 117.574 166.384 118.022 166.306C118.507 166.081 118.902 165.827 119.303 165.549C119.311 165.527 119.326 165.557 119.406 165.632C119.8 165.688 120.115 165.668 120.513 165.747C123.37 167.166 119.509 168.784 119.346 170.511C119.691 170.569 120.378 170.783 120.433 170.681C121.587 168.529 123.053 169.003 124.349 168.208C124.679 168.005 125.071 167.925 125.333 167.629C125.843 167.054 126.28 166.366 126.748 165.725C126.173 165.684 125.564 165.335 125.028 165.658C123.136 166.794 122.103 166.59 122.002 164.603C122.555 164.09 122.978 163.693 123.471 163.366C124.03 163.251 124.519 163.066 125.119 162.832C126.014 162.131 126.797 161.479 127.68 160.786C128.169 160.517 128.56 160.289 129.032 160.132C129.423 160.188 129.733 160.175 130.083 160.259C130.372 160.259 130.619 160.161 130.979 160.075C131.296 160.157 131.502 160.226 131.676 160.426C132.137 160.44 132.628 160.324 133.244 160.14C133.517 159.929 133.665 159.785 133.883 159.676C134.129 159.628 134.305 159.544 134.472 159.552C134.464 159.645 134.617 159.559 134.617 159.559C134.617 159.559 134.565 159.416 134.679 159.386C134.871 159.308 134.947 159.26 135.112 159.257C136.628 158.591 138.056 157.879 139.553 157.143C139.622 157.119 139.759 157.078 139.84 157.143C140.511 157.098 141.102 156.988 141.802 156.857C142.527 156.27 143.142 155.705 143.821 155.089C143.885 155.038 144.013 154.939 144.106 154.967C144.765 154.638 145.331 154.281 145.897 153.905C145.897 153.886 145.901 153.922 145.982 153.962C146.321 153.829 146.579 153.656 146.903 153.461C146.968 153.439 147.099 153.395 147.171 153.465C147.58 153.345 147.918 153.156 148.367 152.906C148.832 152.796 149.184 152.747 149.543 152.847C150.302 153.484 150.125 154.372 149.362 155.535C148.74 156.08 148.243 156.548 147.676 157.16C147.595 158.552 148.244 158.226 149.016 157.642C149.028 157.647 149.048 157.613 149.153 157.623C150.461 157.106 151.104 156.282 151.145 154.712C151.16 154.146 151.788 153.319 152.136 152.61C152.476 153.008 152.85 153.367 153.145 153.816C153.375 154.166 153.507 154.629 153.722 155.134C154.04 154.653 154.137 154.537 154.196 154.409C154.256 154.277 154.325 154.103 154.309 154C154.024 152.059 154.754 151.015 156.552 150.305C157.32 150.002 158.129 148.863 159.022 148.065C159.331 147.971 159.536 147.914 159.788 147.958C160.039 148.029 160.244 148 160.543 148C160.755 148.082 160.873 148.137 160.982 148.345C161.515 149.161 161.944 149.999 163.171 148.379C163.971 147.323 164.948 146.463 165.849 145.493C165.853 145.47 165.866 145.503 165.958 145.54C167.892 144.875 169.734 144.172 171.673 143.435C172.081 143.242 172.393 143.082 172.731 142.91C172.757 142.898 172.802 142.908 172.868 142.972C173.279 142.944 173.624 142.851 174.047 142.814C174.47 142.733 174.813 142.597 175.26 142.412C175.687 142.075 176.01 141.787 176.422 141.531C176.919 141.299 177.327 141.036 177.848 140.769C178.18 140.786 178.399 140.806 178.655 140.937C178.956 141.11 179.219 141.172 179.577 141.276C180.14 140.822 180.608 140.327 181.159 139.784C181.325 139.631 181.408 139.524 181.588 139.459C181.913 139.486 182.142 139.471 182.436 139.538C183.302 139.103 184.104 138.587 185.008 138.078C186.261 137.309 187.476 136.58 187.295 134.497C186.732 134.782 186.224 135.038 185.607 135.355C184.769 135.694 184.041 135.974 183.248 136.174C182.915 136.262 182.648 136.431 182.351 136.647C182.322 136.694 182.327 136.788 182.287 136.683C181.967 136.585 181.687 136.59 181.332 136.536C180.991 136.657 180.727 136.838 180.348 137.051C179.385 137.222 178.538 137.36 177.667 137.387C177.39 137.311 177.138 137.346 176.777 137.363C176.074 137.526 175.477 137.708 174.844 137.856C174.808 137.822 174.693 137.882 174.625 137.794C174.027 137.879 173.499 138.052 172.868 138.186C172.311 138.106 171.856 138.064 171.355 137.911C169.303 138.365 167.297 138.93 165.188 139.492C164.521 139.761 163.954 140.034 163.381 140.32C163.375 140.335 163.393 140.343 163.33 140.257C163.116 140.206 162.966 140.241 162.74 140.219C162.178 140.298 161.691 140.435 161.131 140.533C160.938 140.503 160.818 140.512 160.642 140.421C160.432 140.335 160.279 140.349 160.055 140.292C158.873 140.729 157.762 141.237 156.59 141.73C156.528 141.715 156.383 141.778 156.318 141.702C155.771 141.902 155.289 142.179 154.781 142.444C154.754 142.432 154.699 142.503 154.627 142.429C150.81 143.099 147.069 143.823 143.319 144.605C142.586 144.758 141.813 145.134 140.972 145.399C140.639 145.555 140.393 145.719 140.065 145.855C139.79 145.901 139.596 145.976 139.303 146.022C137.121 146.586 135.032 147.215 132.956 147.76C130.301 148.457 127.655 149.086 124.956 149.712C124.907 149.68 124.773 149.706 124.713 149.6C121.984 149.943 119.331 150.296 116.64 150.876C114.937 151.244 113.176 151.948 111.441 152.505C110.897 152.679 110.328 152.97 109.812 153.028C106.79 153.366 103.911 153.356 100.608 154.722C97.1209 156.165 93.6594 156.535 90.2185 157.2C88.6261 157.508 87.1148 157.381 85.5568 157.489C83.8168 157.61 82.0941 157.621 80.3123 157.957C77.861 158.419 75.3098 159.376 72.8942 159.699C69.1875 160.194 65.5569 160.34 61.8996 160.612C59.539 160.788 56.907 161.551 54.8938 160.945C51.114 159.805 47.705 157.843 44.1119 156.281C43.6673 156.088 43.0241 156.009 42.5014 156.297C40.9414 157.157 40.0107 156.588 39.5676 155.367C39.2037 154.364 38.7298 154.53 37.9668 155.262C36.4799 156.689 35.6404 156.401 35.1824 154.952C34.5234 152.867 33.7414 150.966 31.8356 150.307C31.3501 150.14 31.0221 149.237 31.0319 148.49C31.0587 146.451 31.2402 144.333 31.5029 142.205C31.581 141.573 32.0496 140.702 32.4993 140.144C32.7219 139.867 33.4052 139.882 33.711 140.06C34.5592 140.556 34.8393 139.6 35.3023 138.735C35.5068 138.471 35.6313 138.281 35.8718 138.042C36.0311 137.899 36.0743 137.804 36.1753 137.724C36.233 137.738 36.3647 137.71 36.4221 137.812C37.1953 138.967 38.0968 138.892 39.3104 137.242C39.3725 137.186 39.496 137.071 39.583 137.098C39.9253 136.93 40.1807 136.736 40.4436 136.527C40.4511 136.513 40.436 136.498 40.5307 136.535C41.1283 136.355 41.6312 136.138 42.568 135.733C42.065 135.191 41.7863 134.89 41.4486 134.446C41.2167 134.08 41.0438 133.858 40.9401 133.54C41.0898 133.223 41.1703 133.003 41.357 132.828C43.3588 131.125 45.2545 129.377 47.1503 127.628C47.1763 127.431 47.2024 127.233 47.2284 127.036C46.6861 127.157 45.8894 127.064 45.6433 127.433C44.198 129.599 43.5099 128.69 42.766 127.796C42.7809 127.709 42.7854 127.543 42.9053 127.411C43.1001 127.056 43.1749 126.833 43.3611 126.483C43.7429 125.984 44.0133 125.612 44.3856 125.25C46.6984 123.615 48.6737 123.888 49.5486 125.816C49.7272 126.21 50.4659 126.541 50.691 126.325C51.5679 125.483 52.4828 124.5 53.1271 123.407C54.8305 120.519 54.9292 120.39 57.0559 120.983C58.204 121.302 60.0087 120.182 61.1119 118.451C61.5777 118.099 61.9437 117.823 62.3747 117.615C62.9821 117.419 63.5245 117.155 64.1682 116.883C64.4107 116.828 64.552 116.78 64.7526 116.828C65.3973 116.811 65.9827 116.697 66.653 116.62C66.8649 116.669 66.992 116.683 67.0943 116.823C68.0931 116.603 69.1165 116.258 70.2069 115.875C70.2739 115.839 70.372 115.687 70.483 115.659C71.141 115.216 71.6881 114.8 72.3444 114.329C72.739 114.08 73.0242 113.886 73.3441 113.807C73.6753 113.852 73.9719 113.784 74.2867 113.742C74.305 113.769 74.3736 113.757 74.4662 113.806C75.3649 113.36 76.171 112.865 77.072 112.342C77.2946 112.252 77.4222 112.192 77.6028 112.228C77.953 112.284 78.2502 112.244 78.6296 112.262C79.2715 112.136 79.831 111.951 80.3965 111.78C80.4025 111.795 80.4132 111.754 80.4888 111.82C81.5529 111.301 82.5414 110.716 83.6047 110.158C83.7999 110.144 83.9201 110.102 84.1033 110.113C84.4019 110.051 84.6376 109.938 84.9783 109.845C85.2416 109.815 85.3999 109.765 85.628 109.787C86.4113 109.688 87.1248 109.516 87.9365 109.361C88.9711 108.74 89.9075 108.103 90.9359 107.509C92.2917 106.987 93.5554 106.422 94.8192 105.856C94.8406 105.579 94.862 105.301 94.8834 105.023C93.571 105.112 92.3417 104.744 90.715 106.208C90.6516 106.204 90.5126 106.258 90.4461 106.191C90.1096 106.22 89.8396 106.316 89.4664 106.408C88.7053 106.654 88.0475 106.903 87.3153 107.087C86.9021 107.036 86.5633 107.05 86.128 107.007C85.3415 106.888 84.6516 106.826 83.8974 106.698C83.5663 106.731 83.2994 106.83 82.9544 106.91C82.7577 106.919 82.6391 106.947 82.4654 106.918C82.1332 107.016 81.8562 107.172 81.4857 107.364C81.2335 107.557 81.0746 107.715 80.8417 107.889C80.7676 107.905 80.6172 107.996 80.5402 107.936C79.359 108.186 78.2548 108.496 77.0492 108.768C76.089 108.881 75.2302 109.033 74.3261 109.073C73.361 109.275 72.4012 109.763 71.529 109.867C69.4567 110.114 67.3926 110.289 65.3937 110.267C64.5373 110.258 63.8151 109.75 63.096 109.353C61.8928 108.69 60.9045 107.19 59.5335 107.373C56.711 107.75 54.8439 106.471 53.0518 104.979C52.2386 104.302 52.118 102.402 51.2013 102.104C49.7612 101.638 49.2893 99.9716 48.1476 99.3336C45.9401 98.0998 46.4081 95.0709 46.4402 92.3092C46.4459 91.8191 47.2085 90.5261 47.5043 90.4483C49.0471 90.0428 49.1353 89.0647 49.1506 87.6944C49.1734 85.6438 52.4386 81.8067 53.7405 82.4774C54.9761 83.1139 56.6537 83.5631 56.4648 86.0961C56.467 86.1099 56.4478 86.1389 56.3363 86.2333C56.1107 86.6111 55.9966 86.8945 55.818 87.3361C56.1072 88.8792 56.8014 88.7093 57.7327 87.1843C58.1531 86.4959 58.4967 85.7549 58.9938 84.9588C59.3374 84.6778 59.5625 84.4759 59.7684 84.3302C59.7493 84.3865 59.7913 84.4599 59.8573 84.5104C60.6537 83.9293 61.3841 83.2977 62.1955 82.7384C62.4284 82.8112 62.5803 82.8116 62.7945 82.9073C63.8056 82.9866 64.7544 82.9706 65.7803 82.9961C65.9798 83.0478 66.1022 83.058 66.2025 83.1905C66.8125 83.0705 67.4446 82.8283 68.1666 82.5855C68.3774 82.4885 68.4983 82.3921 68.6982 82.3294C69.0335 82.2242 69.2897 82.085 69.5642 81.9084C69.5824 81.8709 69.5446 81.8314 69.6532 81.8718C70.5247 82.1315 71.2877 82.351 72.1139 82.6756C72.6089 82.7322 73.2134 82.8949 73.4453 82.6021C75.4148 80.1152 77.0456 80.1476 78.6747 81.1285C79.0352 81.3363 79.3335 81.4288 79.6936 81.6027C80.5281 81.5079 81.3006 81.3317 82.1373 81.1433C82.2014 81.1311 82.3042 80.9876 82.4233 80.9551C83.224 80.0913 83.9056 79.2602 84.6985 78.3696C85.0864 78.0645 85.3631 77.8188 85.7488 77.5934C86.933 77.7263 87.9664 78.0241 89.0986 77.8839C89.8047 77.7965 90.6599 77.0478 91.5556 76.5365C91.7801 76.3309 91.8971 76.1847 92.1148 76.0339C92.4875 75.8388 92.7596 75.6482 93.1021 75.4702C93.1724 75.4827 93.3303 75.3742 93.3928 75.4287C93.749 75.3507 94.0427 75.2181 94.4403 75.0583C94.654 74.8953 94.7637 74.7596 94.8845 74.6076C94.8955 74.5912 94.9197 74.5992 94.9864 74.6689C95.3305 74.6014 95.608 74.4642 95.9667 74.3597C96.311 74.251 96.5741 74.1096 96.9031 73.987C96.969 74.0059 97.1242 73.9069 97.2038 73.9547C97.7146 73.8272 98.1458 73.652 98.5943 73.5012C98.6116 73.5256 98.6771 73.498 98.7728 73.5471C99.7326 73.3967 100.597 73.1973 101.513 73.0575C101.677 73.0964 101.79 73.0756 101.984 73.0994C102.5 72.9318 102.934 72.7195 103.41 72.5284C103.453 72.5495 103.558 72.4587 103.65 72.4923C104.386 72.2103 105.03 71.8946 105.672 71.6087C105.671 71.6384 105.676 71.5782 105.739 71.6822C106.438 71.6825 107.075 71.5787 107.787 71.5281C108.182 71.621 108.501 71.6608 108.91 71.7699C109.241 71.7021 109.483 71.565 109.779 71.4494C109.932 71.4461 110.017 71.3771 110.144 71.3503C110.495 71.2402 110.79 71.0435 111.19 70.8298C111.508 70.6942 111.721 70.5755 111.994 70.5511C112.511 70.4716 112.968 70.2978 113.497 70.1781C113.816 70.1222 114.065 70.0122 114.298 69.8857C114.282 69.8691 114.323 69.8859 114.377 69.9908C114.809 70.0153 115.186 69.9348 115.639 69.8939C115.965 69.7992 116.215 69.6648 116.564 69.5423C117.019 69.3473 117.374 69.1405 117.809 68.9782C118.169 68.9248 118.448 68.8268 118.749 68.7615C118.77 68.7942 118.854 68.7608 118.946 68.8157C119.868 68.6523 120.699 68.4341 121.633 68.2255C122.613 67.8838 123.489 67.5325 124.462 67.2185C124.914 67.2893 125.27 67.3227 125.709 67.4332C128.683 66.9177 131.575 66.325 134.467 65.7323C134.812 65.5929 135.157 65.4534 135.69 65.3141C136.134 65.1258 136.389 64.9375 136.644 64.7491C136.644 64.7491 136.651 64.7105 136.728 64.8C137.305 64.6455 137.806 64.4014 138.306 64.1572C138.416 64.0771 138.527 63.997 138.808 63.9716C139.791 64.0032 140.602 63.9801 141.412 63.957C142.001 63.7503 142.589 63.5435 143.377 63.4098C145.63 64.0876 147.786 64.1453 150.312 62.2215C150.312 62.2215 150.465 62.2197 150.62 62.2998C153.937 62.1916 157.089 62.0413 160.27 61.7752C160.763 61.7339 161.388 61.162 161.951 60.8355C162.061 60.7599 162.17 60.6843 162.442 60.6746C164.796 60.5648 167.222 59.8532 169.111 60.3702C170.855 60.8471 172.581 60.4266 174.466 59.7959C174.581 59.8352 174.695 59.8744 174.896 60.0657C176.173 59.8061 177.364 59.3944 178.555 58.9828C178.831 59.096 179.106 59.2092 179.488 59.5062C181.822 60.543 184.362 59.8946 187.045 58.5599C187.32 58.6741 187.595 58.7882 187.984 59.0826C189.393 59.4864 190.62 60.1769 191.998 59.8244C194.078 59.2919 195.787 59.2737 197.075 60.6566C197.676 61.3011 198.266 62.1117 199.09 62.2687C200.512 62.5395 200.787 63.3327 199.367 65.6177C200.686 65.4846 201.738 65.398 202.804 65.2443C202.928 65.2265 203.282 64.7433 203.269 64.6367C203.23 64.3177 203.138 63.9055 202.927 63.8468C202.567 63.7463 201.969 64.0816 201.72 63.8656C201.511 63.6837 201.509 62.7137 201.668 62.5456C203.22 60.9009 204.51 61.4358 205.622 61.8584C206.064 62.026 205.883 63.5073 205.947 64.4119C206.003 65.2066 205.725 66.4277 206.083 66.7688C207.185 67.8184 206.847 69.0952 205.863 70.9529C205.132 72.3331 204.596 73.8942 204.241 75.3498C203.711 77.5261 203.279 79.6537 201.611 81.6356C201.275 81.9963 201.049 82.3121 200.823 82.6279C200.823 82.6279 200.827 82.668 200.726 82.6272C199.914 83.1998 199.203 83.8133 198.492 84.4267C198.492 84.4267 198.493 84.4671 198.401 84.404C197.278 85.1308 196.248 85.9208 195.217 86.7108C195.217 86.7108 195.078 86.8682 194.909 86.9458C193.895 87.9307 193.05 88.838 192.205 89.7454C192.034 90.0148 191.864 90.2843 191.499 90.6799C190.768 91.3408 190.232 91.8755 189.696 92.4102C189.696 92.4102 189.556 92.5687 189.378 92.6523C186.491 95.9527 183.883 99.5989 180.245 99.4628C179.426 100.099 178.716 100.682 177.897 101.31C175.623 102.555 173.457 103.754 171.291 104.954C171.211 105.228 171.131 105.501 171.051 105.775C171.478 106.015 171.856 106.555 172.339 106.444C174.708 105.901 177.118 105.102 179.481 104.591C180.046 104.469 180.483 105.104 180.95 105.47C180.921 105.549 180.905 105.703 180.843 105.825C180.779 106.026 180.778 106.105 180.707 106.316C180.546 106.624 180.454 106.799 180.258 106.989C179.972 107.207 179.792 107.411 179.597 107.609C179.583 107.602 179.563 107.647 179.476 107.619C179.055 107.814 178.72 108.038 178.296 108.281C178.027 108.41 177.848 108.518 177.569 108.599C175.255 108.343 172.494 110.444 170.479 109.306C170.243 109.173 169.707 109.402 169.359 109.665C167.936 110.742 166.958 110.441 165.959 109.85C164.794 109.16 163.437 108.988 161.684 110.596C161.322 110.776 161.059 110.919 160.708 111.012C159.331 111.341 158.039 111.72 156.688 112.101C156.628 112.103 156.499 112.157 156.421 112.11C156.077 112.225 155.811 112.387 155.433 112.56C154.248 112.732 153.176 112.893 152.052 112.966C151.735 112.989 151.471 113.099 151.142 113.222C151.078 113.235 150.946 113.301 150.883 113.229C150.551 113.281 150.281 113.405 149.95 113.543C149.887 113.558 149.76 113.627 149.681 113.577C149.183 113.755 148.763 113.985 148.282 114.215C148.221 114.215 148.089 114.258 148.015 114.193C147.52 114.377 147.099 114.626 146.612 114.884C146.546 114.893 146.41 114.944 146.331 114.883C145.041 115.438 143.83 116.054 142.619 116.67C142.594 117.003 142.57 117.336 142.545 117.668C144.194 117.335 145.843 117.003 147.576 116.672C147.779 116.647 147.898 116.621 148.086 116.662C148.419 116.569 148.684 116.408 149.021 116.229C149.093 116.211 149.24 116.133 149.297 116.211C149.618 116.17 149.881 116.05 150.208 115.93C150.271 115.929 150.405 115.881 150.466 115.953C150.796 115.916 151.063 115.807 151.438 115.708C151.84 115.723 152.134 115.728 152.481 115.831C153.026 115.775 153.518 115.621 154.1 115.446C154.375 115.352 154.559 115.28 154.826 115.273C156.286 114.941 157.663 114.542 159.15 114.094C159.902 113.739 160.546 113.434 161.255 113.194C161.574 113.111 161.827 112.963 162.189 112.814C162.51 112.819 162.723 112.826 162.982 112.948C163.532 112.911 164.035 112.759 164.634 112.61C164.996 112.547 165.263 112.48 165.569 112.537C166.352 112.521 167.087 112.466 167.84 112.226C170.677 111.325 173.307 111.884 176.372 110.108C177.16 110.283 177.85 110.389 178.617 110.543C178.961 110.46 179.228 110.331 179.595 110.215C179.901 110.226 180.108 110.225 180.39 110.335C181.38 110.878 182.105 112.029 183.713 110.209C184.739 109.793 185.653 109.441 186.618 109.168C186.925 109.197 187.181 109.148 187.516 109.108C187.713 109.091 187.83 109.064 188.021 109.094C188.359 108.989 188.623 108.827 188.976 108.658C189.25 108.561 189.435 108.471 189.699 108.44C190.214 108.389 190.649 108.28 191.16 108.22C191.531 108.348 191.826 108.427 192.098 108.649C192.448 109.245 192.821 109.7 193.194 110.154C193.667 109.481 194.14 108.808 194.709 108.036C195.047 107.668 195.29 107.397 195.608 107.136C195.739 107.13 195.794 107.115 195.917 107.192C196.352 107.352 196.718 107.42 197.172 107.543C198.474 107.287 199.69 106.974 200.905 106.662C201.168 106.611 201.431 106.561 201.723 106.632C202.36 106.626 202.967 106.5 203.574 106.373C203.849 106.326 204.124 106.279 204.543 106.362C205.359 106.453 206.029 106.414 206.699 106.374C206.823 106.373 206.947 106.372 207.082 106.497C208.729 106.336 210.366 106.05 212.003 105.765ZM197.373 135.161C197.373 135.161 197.373 135.149 197.185 135.097C196.857 135.393 196.529 135.689 196.209 136.054C196.209 136.054 196.196 135.989 195.997 135.969C194.964 136.583 193.93 137.197 192.674 137.902C191.011 138.98 189.355 140.389 187.679 140.165C187.49 140.14 187.064 140.759 186.763 141.098C186.763 141.098 186.773 141.065 186.688 140.92C186.629 140.93 186.571 140.94 186.318 140.893C184.905 141.614 183.492 142.355 182.078 143.04C181.778 143.185 181.474 143.126 181.171 143.165C180.351 143.274 179.53 143.384 178.709 143.494C178.607 143.874 178.505 144.254 178.403 144.634C179.048 144.642 179.673 144.812 180.343 144.628C182.494 144.038 184.659 143.35 186.826 142.617C187.225 142.482 187.658 141.959 188.192 141.818C189.715 141.192 191.239 140.567 192.969 139.936C193.687 139.528 194.406 139.12 195.148 138.636C195.148 138.636 195.145 138.708 195.325 138.789C196.441 138.148 197.557 137.508 198.799 136.773C198.799 136.773 198.923 136.669 199.11 136.706C199.515 136.416 199.92 136.126 200.324 135.786C200.324 135.786 200.329 135.834 200.52 135.893C201.919 135.428 203.315 135.023 204.719 134.46C205.113 134.302 205.528 133.68 205.933 133.27C205.696 132.99 205.522 132.441 205.212 132.475C203.823 132.631 202.395 132.952 200.784 133.2C200.579 133.212 200.374 133.225 199.984 133.176C199.513 133.581 199.043 133.985 198.441 134.484C198.441 134.484 198.314 134.593 198.138 134.543C197.883 134.745 197.628 134.947 197.373 135.161ZM49.5441 130.116C51.0881 129.998 52.6345 129.796 54.2214 128.127C53.4309 127.152 51.1613 128.081 49.1429 130.168C48.9256 130.247 48.7083 130.327 48.4909 130.407C48.5007 130.504 48.5104 130.601 48.5202 130.698C48.788 130.501 49.0557 130.304 49.5441 130.116ZM235.824 113.683C236.716 113.619 237.608 113.555 238.499 113.491C238.652 113.205 238.805 112.918 238.958 112.632C238.606 112.153 238.375 111.309 237.875 111.274C236.959 111.212 235.983 111.812 235.824 113.683ZM37.7633 152.184C38.2994 151.431 39.1453 150.551 38.2074 150.124C37.9139 149.991 37.2827 150.509 36.8061 150.729C37.0373 151.262 37.2686 151.795 37.7633 152.184ZM190.105 217.165C190.934 217.468 191.455 216.994 191.798 215.569C190.819 215.782 189.947 215.972 189.074 216.162C189.012 216.305 188.95 216.449 188.888 216.592C189.216 216.777 189.545 216.962 190.105 217.165ZM349.364 224.624C349.481 224.286 349.723 223.659 349.696 223.652C349.011 223.466 348.299 223.346 347.591 223.214C347.475 223.487 347.359 223.761 347.243 224.034C347.874 224.231 348.505 224.427 349.364 224.624Z" fill="#2A7FFF" fill-opacity="0.1"/>
<path fill-rule="evenodd" clip-rule="evenodd" d="M327 155C327 218.513 275.513 270 212 270C192.077 270 173.338 264.934 157 256.02L97 270L112.097 212C102.491 195.199 97 175.74 97 155C97 91.4873 148.487 40 212 40C275.513 40 327 91.4873 327 155ZM307 155C307 207.467 264.467 250 212 250C192.748 250 174.833 244.273 159.866 234.43L124 243L133.147 208C122.951 192.861 117 174.625 117 155C117 102.533 159.533 60 212 60C264.467 60 307 102.533 307 155Z" fill="#2A7FFF"/>
<path d="M250.267 194.767C261.317 191.083 259.476 174.877 246.583 178.192C214.354 186.479 185.808 173.588 166.471 157.013C156.343 148.331 148.976 162.539 155.421 168.984C161.866 175.428 163.581 173.375 166.471 178.192C171.995 187.4 160.146 196.184 173.838 204.896C183.967 211.341 192.298 200.859 204.226 198.45C222.203 194.818 231.85 200.292 250.267 194.767Z" fill="#2A7FFF"/>
<ellipse cx="11.2353" cy="16.7121" rx="11.2353" ry="16.7121" transform="matrix(-0.962266 -0.272112 -0.272112 0.962266 265 123.166)" fill="#2A7FFF"/>
<ellipse cx="11.2353" cy="16.7121" rx="11.2353" ry="16.7121" transform="matrix(-0.962266 -0.272112 -0.272112 0.962266 200.542 105.115)" fill="#2A7FFF"/>
<path fill-rule="evenodd" clip-rule="evenodd" d="M65.8125 17C65.8125 20.6633 64.3573 24.1766 61.7669 26.7669C59.1766 29.3573 55.6633 30.8125 52 30.8125C48.3367 30.8125 44.8234 29.3573 42.2331 26.7669C39.6427 24.1766 38.1875 20.6633 38.1875 17C38.1875 13.3367 39.6427 9.82343 42.2331 7.23309C44.8234 4.64274 48.3367 3.1875 52 3.1875C55.6633 3.1875 59.1766 4.64274 61.7669 7.23309C64.3573 9.82343 65.8125 13.3367 65.8125 17ZM69 17C69 21.5087 67.2089 25.8327 64.0208 29.0208C60.8327 32.2089 56.5087 34 52 34C47.4913 34 43.1673 32.2089 39.9792 29.0208C36.7911 25.8327 35 21.5087 35 17C35 12.4913 36.7911 8.1673 39.9792 4.97918C43.1673 1.79107 47.4913 0 52 0C56.5087 0 60.8327 1.79107 64.0208 4.97918C67.2089 8.1673 69 12.4913 69 17ZM48.2812 22.3125C47.8586 22.3125 47.4532 22.4804 47.1543 22.7793C46.8554 23.0782 46.6875 23.4836 46.6875 23.9062C46.6875 24.3289 46.8554 24.7343 47.1543 25.0332C47.4532 25.3321 47.8586 25.5 48.2812 25.5H55.7188C56.1414 25.5 56.5468 25.3321 56.8457 25.0332C57.1446 24.7343 57.3125 24.3289 57.3125 23.9062C57.3125 23.4836 57.1446 23.0782 56.8457 22.7793C56.5468 22.4804 56.1414 22.3125 55.7188 22.3125H53.5938V14.875H49.875C49.4523 14.875 49.0469 15.0429 48.748 15.3418C48.4492 15.6407 48.2812 16.0461 48.2812 16.4688C48.2812 16.8914 48.4492 17.2968 48.748 17.5957C49.0469 17.8946 49.4523 18.0625 49.875 18.0625H50.4062V22.3125H48.2812ZM52 12.75C52.5636 12.75 53.1041 12.5261 53.5026 12.1276C53.9011 11.7291 54.125 11.1886 54.125 10.625C54.125 10.0614 53.9011 9.52091 53.5026 9.1224C53.1041 8.72388 52.5636 8.5 52 8.5C51.4364 8.5 50.8959 8.72388 50.4974 9.1224C50.0989 9.52091 49.875 10.0614 49.875 10.625C49.875 11.1886 50.0989 11.7291 50.4974 12.1276C50.8959 12.5261 51.4364 12.75 52 12.75Z" fill="#2A7FFF"/>
<path d="M413.958 243.709C423.596 248.713 428.491 259.836 424.441 267.638C420.458 275.309 409.11 277.08 399.282 271.978C397.18 270.888 395.237 269.521 393.528 267.929C392.333 268.184 391.924 268.269 389.391 268.803C387.683 268.96 386.333 268.613 385.525 267.536C384.709 266.451 384.91 265.266 385.826 264.045L388.393 260.865C386.559 256.733 386.492 252.495 388.355 248.905C392.406 241.102 404.318 238.705 413.958 243.709ZM412.844 245.855C404.569 241.56 394.303 243.625 390.881 250.216C389.254 253.351 389.401 257.091 391.186 260.747L391.209 260.792L391.54 261.465L391.108 262L390.22 263.103L389.983 263.397L388.149 265.671C388.03 265.827 387.922 265.99 387.827 266.16L387.751 266.305C387.747 266.313 387.744 266.315 387.741 266.316C387.762 266.307 388.041 266.369 388.597 266.326L394.188 265.131L394.811 265.757C396.432 267.38 398.323 268.761 400.395 269.834C408.904 274.251 418.586 272.739 421.915 266.327C425.336 259.737 421.118 250.151 412.844 245.855ZM399.129 251.215C399.498 251.392 399.834 251.631 400.116 251.918C400.399 252.205 400.622 252.533 400.772 252.884C400.923 253.234 400.998 253.599 400.992 253.958C400.987 254.316 400.901 254.66 400.741 254.969C400.581 255.278 400.348 255.546 400.059 255.756C399.769 255.967 399.427 256.116 399.054 256.194C398.68 256.273 398.284 256.279 397.886 256.213C397.489 256.147 397.1 256.01 396.743 255.81C396.054 255.425 395.522 254.829 395.258 254.148C394.994 253.467 395.019 252.754 395.328 252.159C395.637 251.564 396.206 251.133 396.915 250.956C397.623 250.78 398.417 250.873 399.129 251.215ZM408.146 255.896C408.516 256.074 408.852 256.313 409.134 256.6C409.416 256.886 409.64 257.215 409.79 257.565C409.941 257.916 410.015 258.281 410.01 258.639C410.005 258.997 409.919 259.341 409.759 259.65C409.598 259.959 409.366 260.227 409.076 260.438C408.786 260.648 408.445 260.797 408.071 260.876C407.698 260.954 407.301 260.961 406.904 260.895C406.507 260.829 406.118 260.692 405.761 260.492C405.072 260.107 404.539 259.511 404.275 258.83C404.012 258.149 404.037 257.436 404.346 256.84C404.655 256.245 405.224 255.814 405.932 255.638C406.641 255.462 407.435 255.554 408.146 255.896ZM417.162 260.577C417.532 260.754 417.867 260.993 418.15 261.28C418.432 261.567 418.655 261.895 418.806 262.246C418.956 262.596 419.031 262.961 419.026 263.32C419.02 263.678 418.935 264.022 418.775 264.331C418.614 264.64 418.382 264.908 418.092 265.118C417.802 265.329 417.46 265.478 417.087 265.556C416.714 265.635 416.317 265.641 415.92 265.575C415.523 265.509 415.134 265.372 414.776 265.172C414.088 264.787 413.555 264.191 413.291 263.51C413.027 262.829 413.053 262.116 413.362 261.521C413.671 260.925 414.24 260.494 414.948 260.318C415.657 260.142 416.451 260.235 417.162 260.577Z" fill="#2A7FFF"/>
<path d="M14.9766 216.662C14.8214 216.431 14.6021 216.251 14.3457 216.144C14.0893 216.036 13.8071 216.006 13.5338 216.057C13.2605 216.108 13.0081 216.238 12.8078 216.43C12.6074 216.623 12.4677 216.87 12.4061 217.141L10.0749 227.398L6.07882 230.086C5.84002 230.247 5.65544 230.476 5.54937 230.743C5.4433 231.011 5.42072 231.304 5.4846 231.585C5.84877 233.18 6.50494 234.694 7.41998 236.051C8.36022 237.448 9.52124 238.613 10.8287 239.525C11.311 239.865 11.952 239.868 12.4405 239.54L16.4351 236.853L26.8139 238.559C27.0883 238.604 27.3698 238.568 27.6238 238.455C27.8778 238.342 28.0932 238.157 28.2434 237.923C28.3936 237.689 28.4721 237.417 28.4692 237.139C28.4663 236.861 28.382 236.589 28.2269 236.359L14.9766 216.662ZM25.7304 212.403C25.3627 212.338 24.984 212.42 24.6761 212.631C24.3681 212.842 24.1555 213.166 24.0839 213.533C24.0124 213.899 24.0877 214.279 24.2936 214.591C24.4995 214.903 24.8195 215.121 25.1848 215.199C27.9034 215.731 30.2993 217.321 31.8455 219.619C33.3917 221.918 33.9615 224.736 33.4297 227.455C33.3716 227.819 33.4573 228.192 33.6687 228.495C33.88 228.797 34.2006 229.006 34.5628 229.077C34.9249 229.148 35.3005 229.075 35.6103 228.875C35.9201 228.674 36.14 228.361 36.2236 228.002C36.9004 224.542 36.1751 220.955 34.2073 218.029C32.2395 215.104 29.1903 213.08 25.7304 212.403Z" fill="#2A7FFF"/>
<path d="M24.6368 217.995C24.2692 217.93 23.8904 218.011 23.5823 218.222C23.2741 218.433 23.0612 218.757 22.9893 219.123C22.9174 219.49 22.9923 219.87 23.1979 220.182C23.4036 220.493 23.7234 220.712 24.0886 220.79C24.7006 220.91 25.283 221.149 25.8026 221.494C26.3222 221.839 26.7688 222.282 27.1169 222.8C27.465 223.317 27.7077 223.898 27.8312 224.509C27.9547 225.121 27.9566 225.75 27.8368 226.362C27.7788 226.727 27.8645 227.099 28.0758 227.402C28.2872 227.704 28.6077 227.913 28.9699 227.984C29.3321 228.055 29.7077 227.982 30.0175 227.782C30.3273 227.581 30.5471 227.268 30.6307 226.909C31.0172 224.932 30.6028 222.882 29.4784 221.211C28.3541 219.54 26.612 218.383 24.6353 217.996" fill="#2A7FFF"/>
<path d="M390.512 33.6587L362.915 35.3117C361.827 35.3789 360.786 35.78 359.934 36.4605C359.083 37.1409 358.462 38.0675 358.156 39.114C357.851 40.1604 357.875 41.2758 358.226 42.308C358.578 43.3402 359.239 44.2391 360.119 44.8819L368.534 50.9789C368.732 51.1295 368.898 51.318 369.023 51.5334C369.147 51.7488 369.227 51.9868 369.259 52.2336L370.332 62.5694C370.424 63.4477 370.735 64.2891 371.235 65.017C371.735 65.7449 372.409 66.3363 373.196 66.7374C373.983 67.1385 374.857 67.3366 375.74 67.3138C376.623 67.2909 377.486 67.0478 378.25 66.6065C378.962 66.1859 379.571 65.6113 380.033 64.9247L395.262 41.851C395.801 41.0302 396.101 40.0757 396.129 39.0941C396.158 38.1125 395.912 37.1423 395.421 36.2917C394.93 35.4412 394.213 34.7437 393.348 34.2773C392.484 33.8108 391.507 33.5936 390.527 33.6499L390.512 33.6587ZM392.304 39.907L377.075 62.9807C376.872 63.2781 376.582 63.5063 376.246 63.6345C375.909 63.7628 375.541 63.7851 375.192 63.6984C374.842 63.6116 374.527 63.4201 374.289 63.1494C374.052 62.8787 373.902 62.5418 373.861 62.1838L372.773 51.8568C372.757 51.7198 372.733 51.5838 372.701 51.4496L383.24 45.365C383.645 45.1308 383.941 44.745 384.062 44.2924C384.184 43.8399 384.12 43.3577 383.886 42.9519C383.652 42.5461 383.266 42.2499 382.813 42.1286C382.361 42.0073 381.879 42.0707 381.473 42.3049L370.934 48.3895C370.834 48.2947 370.728 48.2059 370.618 48.1235L362.218 42.0177C361.929 41.8033 361.712 41.5055 361.596 41.1642C361.48 40.823 361.472 40.4546 361.572 40.1084C361.671 39.7623 361.875 39.4549 362.154 39.2275C362.433 39.0002 362.776 38.8637 363.135 38.8364L390.732 37.1835C391.057 37.1672 391.38 37.2409 391.665 37.3964C391.951 37.5519 392.188 37.7832 392.35 38.0648C392.513 38.3464 392.595 38.6674 392.587 38.9924C392.578 39.3174 392.481 39.6339 392.304 39.907Z" fill="#2A7FFF"/>
</svg>
