<svg width="427" height="326" viewBox="0 0 427 326" fill="none" xmlns="http://www.w3.org/2000/svg">
<path d="M223.53 106.765C223.641 106.804 223.751 106.844 223.956 107.014C225.918 106.991 227.765 106.941 229.666 106.628C230.28 106.527 231.033 105.734 231.723 105.257C233.828 103.292 235.051 104.258 236.224 105.565C236.286 106.584 236.617 107.315 236.419 108.081C235.985 109.759 236.567 109.966 237.703 109.818C238.323 109.964 238.85 110.051 239.46 110.19C240.283 109.969 241.025 109.695 241.943 109.356C241.19 108.932 240.628 108.616 239.96 108.255C239.276 108.111 238.696 108.012 238.178 107.745C238.592 106.948 238.945 106.318 239.298 105.688C239.375 105.616 239.454 105.556 239.609 105.64C241.567 106.133 243.502 106.383 245.302 106.934C245.778 107.08 245.804 108.184 246.096 108.788C246.272 109.151 246.506 109.693 246.814 109.639C247.558 109.511 248.361 109.08 249.14 108.771C249.41 108.891 249.68 109.012 250.064 109.318C250.475 109.651 250.796 109.758 251.063 109.952C253.115 111.443 255.19 112.902 257.187 114.478C258.035 115.148 258.635 116.199 259.488 116.86C260.84 117.906 260.877 118.145 259.328 120.387C259.324 120.392 259.315 120.394 259.221 120.372C258.921 121.087 258.715 121.823 258.531 122.672C258.556 123.198 258.559 123.61 258.451 124.139C258.322 124.839 258.198 125.939 258.305 125.922C259.023 125.81 259.789 125.461 260.605 125.147C260.67 125.104 260.794 124.996 260.9 125.013C261.417 124.681 261.821 124.306 262.24 123.988C262.765 123.588 263.301 123.235 263.833 122.861C263.912 123.547 264.192 124.214 264.021 124.925C263.797 125.854 263.163 126.811 262.806 127.77C262.486 128.629 262.13 129.577 262.097 130.362C262.044 131.637 261.729 132.548 260.659 133.538C260.199 133.964 259.977 134.97 259.657 135.716C259.668 135.718 259.691 135.695 259.594 135.833C259.641 136.616 259.88 137.212 259.908 137.916C259.96 139.199 259.972 140.522 259.824 141.882C259.768 142.392 259.225 143.425 258.897 143.582C257.48 144.26 256.062 144.664 254.642 145.243C253.91 145.54 253.144 145.876 252.441 146.399C250.529 147.821 248.657 149.767 246.741 150.743C243.851 152.217 240.939 152.988 238.032 154.184C237.201 154.526 236.353 155.303 235.408 155.891C234.97 156.147 234.636 156.392 234.248 156.554C233.913 156.529 233.634 156.587 233.286 156.562C229.999 157.645 226.782 158.812 223.47 159.954C222.662 160.401 221.951 160.874 221.132 161.366C220.656 161.575 220.288 161.765 219.881 161.85C219.294 161.918 218.747 162.065 218.196 162.272C212.527 164.407 206.858 166.552 201.107 168.649C200.607 168.812 200.189 169.02 199.714 169.214C199.657 169.199 199.532 169.203 199.447 169.14C198.243 169.089 197.258 169.594 196.346 171.62C197.803 171.17 199.059 170.782 200.397 170.409C200.593 170.426 200.707 170.428 200.895 170.499C201.318 170.466 201.668 170.364 202.124 170.262C204.186 169.804 206.162 169.24 208.09 168.912C211.029 168.413 213.929 168.104 216.856 167.666C221.342 166.994 225.846 166.233 230.321 165.614C231.812 165.407 232.973 166.299 234.784 165.209C235.853 164.565 237.004 164.812 238.133 164.566C240.923 163.96 243.722 163.3 246.626 162.673C246.895 162.631 247.055 162.577 247.28 162.608C248.383 162.557 249.423 162.422 250.54 162.324C250.873 162.305 251.128 162.249 251.476 162.241C252.219 162.22 252.87 162.152 253.621 162.127C254.029 162.187 254.336 162.204 254.72 162.281C256.011 161.996 257.226 161.65 258.521 161.37C258.744 161.44 258.888 161.445 259.091 161.54C259.814 161.498 260.477 161.366 261.225 161.29C261.983 161.184 262.656 161.022 263.388 160.922C263.63 160.936 263.814 160.886 264.085 160.891C264.324 160.928 264.474 160.912 264.688 160.987C266.282 160.885 267.812 160.692 269.432 160.517C269.783 160.404 270.046 160.274 270.379 160.2C270.72 160.154 270.99 160.053 271.361 159.999C272.149 160.144 272.835 160.241 273.587 160.407C274.073 160.391 274.492 160.306 274.99 160.271C275.341 160.304 275.613 160.287 275.965 160.326C276.558 160.219 277.072 160.056 277.673 159.937C277.976 159.952 278.192 159.923 278.478 159.974C282.821 159.683 287.094 159.312 291.422 158.986C291.569 159.066 291.672 159.057 291.825 159.094C292.738 159.118 293.612 159.05 294.571 159.017C294.782 159.067 294.909 159.081 295.024 159.222C296.126 159.31 297.239 159.271 298.359 159.219C298.366 159.207 298.386 159.206 298.437 159.318C299.491 159.221 300.494 159.011 301.602 158.84C304.23 159.223 306.784 159.493 309.27 159.935C311.116 160.263 312.859 160.851 314.676 161.257C317.099 161.798 317.453 162.764 316.67 166.219C316.531 166.83 316.795 167.795 317.164 167.868C318.381 168.111 318.548 169.085 318.218 170.642C318.076 171.313 318.058 171.966 317.969 172.754C319.837 172.012 319.54 173.391 319.123 174.927C318.767 176.238 318.661 177.616 318.084 178.838C317.371 180.351 316.414 181.973 315.326 183.106C314.243 184.233 312.866 184.812 311.56 185.675C311.425 185.777 311.349 185.838 311.188 185.848C310.184 186.317 309.261 186.799 308.352 187.376C307.758 187.753 307.19 188.316 306.598 188.714C303.724 190.641 300.53 191.153 298.105 195.116C297.808 195.601 297.044 195.812 296.497 196.063C295.832 196.368 295.169 196.544 294.504 196.84C291.912 197.993 289.315 199.27 286.729 200.314C283.093 201.782 279.465 203.06 275.831 204.462C271.864 205.992 267.895 207.57 263.835 209.102C263.332 209.331 262.92 209.586 262.509 209.855C262.511 209.87 262.505 209.842 262.392 209.872C261.411 211.92 262.565 211.207 263.419 211.073C263.781 211.182 264.058 211.233 264.405 211.343C264.745 211.296 265.015 211.189 265.389 211.1C266.71 211.074 267.927 211.03 269.234 211.039C269.531 211.141 269.737 211.191 270.024 211.317C274.407 211.616 278.716 211.816 283.005 212.077C284.161 212.148 285.212 212.561 286.391 212.54C288.43 212.502 290.532 212.248 292.696 212.131C293.11 212.26 293.435 212.342 293.823 212.552C294.436 212.888 294.988 213.096 295.633 213.366C298.813 213.608 301.965 213.608 304.97 214.009C309.84 214.66 314.611 215.58 319.432 216.366C319.764 216.42 320.164 216.296 320.53 216.268C323.348 216.046 326.437 214.974 328.635 216.701C328.948 216.947 329.496 216.942 329.967 216.817C333.163 215.968 335.766 216.552 337.917 218.339C338.226 218.596 338.799 218.728 339.221 218.495C342.007 216.959 343.775 218.423 345.965 218.726C348.254 219.042 350.435 220.132 353.388 218.257C353.525 218.34 353.61 218.374 353.677 218.543C354.304 218.865 354.941 219.069 355.602 219.213C356.35 219.377 357.122 219.48 357.879 219.621C358.539 219.744 359.167 220.192 359.855 219.955C361.858 219.266 364.214 220.73 364.269 222.506C366.355 222.468 368.304 222.34 370.182 222.432C371.416 222.493 371.536 223.586 370.39 224.916C368.402 227.222 368.572 229.296 368.732 231.29C368.904 233.425 368.541 234.146 366.684 234.546C366.36 234.616 366.035 234.698 365.613 234.744C364.569 235.8 364.569 235.8 365.231 236.683C366.449 238.304 365.967 239.679 363.677 240.762C362.375 240.196 361.293 239.214 359.417 241.025C357.297 241.309 355.263 241.702 353.265 241.935C352.449 242.03 351.724 241.742 350.937 241.693C350.527 241.667 349.976 241.567 349.653 241.876C348.817 242.675 348.073 243.681 347.221 244.637C347.151 244.668 347.011 244.736 346.944 244.624C344.645 244.318 342.508 243.646 340.159 244.039C336.403 244.667 332.503 245.876 329.263 244.73C326.383 243.713 322.523 245.342 320.063 243.236C319.741 242.96 318.989 243.364 318.54 243.224C317.294 242.834 316.101 242.327 314.892 241.857C314.674 241.772 314.508 241.543 314.27 241.546C312.964 241.562 312.5 240.735 313.031 238.894C312.058 238.936 311.184 238.681 310.305 239.081C309.025 239.662 308.115 239.654 307.218 239.019C306.414 238.449 305.446 238.06 304.133 239.729C302.741 241.498 302.237 241.345 301.92 239.452C301.832 238.926 301.511 238.3 301.127 238.303C300.766 238.305 300.155 239.035 299.699 239.523C299.23 240.025 298.746 241.029 298.387 241.108C296.937 241.424 295.471 241.653 294.126 241.566C292.385 241.453 290.749 241.021 289.08 240.696C288.7 240.622 288.382 240.396 288.014 240.289C287.271 240.075 286.546 239.801 285.754 239.719C283.999 239.539 281.928 239.978 280.489 239.238C277.504 237.702 273.754 238.792 270.389 238.597C269.813 238.563 269.131 238.853 268.438 238.975C268.379 238.958 268.242 238.971 268.18 238.847C267.623 238.614 267.129 238.504 266.567 238.316C265.954 238.339 265.407 238.44 264.761 238.514C264.511 238.514 264.362 238.54 264.164 238.453C263.693 238.216 263.27 238.092 262.783 237.85C262.242 237.589 261.767 237.447 261.218 237.228C260.207 237.662 259.268 238.172 258.228 238.689C257.994 238.8 257.86 238.903 257.658 238.941C257.337 239.001 257.085 239.125 256.745 239.22C256.535 239.164 256.413 239.138 256.305 238.965C255.735 238.657 255.15 238.495 254.478 238.308C253.987 238.453 253.583 238.624 253.08 238.747C252.766 238.637 252.551 238.573 252.392 238.4C252.28 238.201 252.113 238.112 251.912 237.952C251.818 237.797 251.736 237.753 251.639 237.609C251.144 236.116 250.082 236.659 248.832 237.495C248.066 237.65 247.409 237.779 246.659 237.857C245.917 237.881 245.266 237.954 244.53 238.024C244.321 238.052 244.198 238.083 244.016 238.02C243.497 238.038 243.038 238.152 242.49 238.204C242.188 238.097 241.975 238.053 241.716 237.909C241.001 238.042 240.33 238.276 239.583 238.52C239.506 238.531 239.35 238.635 239.249 238.602C238.618 238.721 238.087 238.873 237.483 238.966C237.155 238.868 236.901 238.829 236.593 238.716C236.222 238.559 235.906 238.476 235.505 238.343C235.276 238.311 235.131 238.329 234.945 238.249C234.664 238.278 234.424 238.405 234.078 238.506C233.399 238.406 232.825 238.332 232.181 238.163C231.793 238.073 231.474 238.08 231.083 238.021C230.582 238.061 230.154 238.166 229.655 238.218C229.228 238.269 228.873 238.374 228.41 238.481C228.003 238.536 227.704 238.59 227.352 238.542C226.661 238.579 226.024 238.717 225.279 238.826C224.933 238.802 224.696 238.807 224.399 238.697C222.813 238.505 221.285 238.427 219.676 238.271C218.007 238.24 216.42 238.288 214.755 238.293C214.549 238.244 214.423 238.239 214.262 238.085C213.655 237.808 213.083 237.68 212.437 237.489C211.981 237.353 211.598 237.279 211.12 237.103C210.334 236.603 209.643 236.203 208.935 235.711C208.843 235.556 208.767 235.492 208.71 235.293C208.623 234.72 208.517 234.283 208.425 233.788C208.439 233.729 208.38 233.671 208.406 233.554C208.256 233.272 208.081 233.108 207.842 232.856C207.361 232.862 206.944 232.954 206.416 233.053C205.78 233.168 205.255 233.278 204.638 233.333C202.846 233.932 201.071 234.207 200.737 232.299C200.315 229.89 199.015 229.365 197.089 229.582C195.883 229.718 195.061 229.288 194.82 227.867C194.747 227.441 194.399 227.201 194.165 226.763C194.134 226.423 194.115 226.196 194.218 225.854C194.886 223.968 195.432 222.196 196.045 220.322C196.227 220.004 196.342 219.789 196.58 219.513C197.304 218.216 197.905 216.981 198.523 215.643C198.552 215.397 198.512 215.3 198.485 215.103C197.964 214.236 197.439 213.435 196.783 212.819C195.269 211.399 195.523 209.949 197.856 207.701C198.098 207.693 198.244 207.66 198.433 207.703C198.643 207.772 198.81 207.765 199.052 207.829C199.257 207.941 199.387 207.984 199.534 208.14C199.76 208.367 199.969 208.482 200.227 208.722C201.075 209.393 201.785 210.244 203.269 208.765C203.656 208.446 203.928 208.175 204.303 207.928C204.874 207.329 205.401 206.742 205.802 206.073C207.011 204.053 207.534 203.813 208.712 204.841C209.338 205.387 209.957 205.773 210.931 204.268C211.262 203.758 211.834 203.438 212.391 202.964C212.585 202.763 212.683 202.628 212.792 202.531C212.802 202.568 212.858 202.602 212.878 202.691C213.179 202.633 213.461 202.485 213.851 202.313C214.886 201.651 215.829 201.071 216.738 200.365C219.236 198.424 221.536 197.539 223.594 199.115C223.882 198.319 224.099 197.721 224.323 197.101C222.138 197.054 220.18 196.917 218.161 197.004C217.056 197.053 215.848 197.481 214.577 197.739C211.933 198.137 209.399 198.528 206.861 198.935C206.225 199.037 205.56 199.262 204.942 199.302C201.797 199.509 198.663 199.673 195.429 199.831C194.901 199.994 194.469 200.179 193.992 200.258C191.834 200.963 189.723 201.693 187.609 202.613C186.344 203.163 185.145 203.823 184.532 202.442C184.409 202.166 184.111 201.871 183.849 201.946C181.623 202.589 179.525 202.864 177.421 202.805C176.384 202.775 174.828 204.374 173.909 203.175C173.789 203.017 173.414 203.123 173.145 203.203C171.424 203.721 169.692 204.317 167.976 204.79C163.709 205.965 159.444 207.125 155.187 208.222C150.554 209.416 145.921 210.598 141.312 211.636C140.222 211.882 139.235 211.51 138.189 211.462C137.004 211.406 135.816 211.359 134.608 211.382C134.099 211.391 133.527 211.627 132.998 211.696C130.297 212.05 127.602 212.38 124.901 212.735C124.837 212.744 124.732 212.94 124.591 213.116C124.537 213.184 124.582 213.305 124.574 213.197C124.504 213.096 124.442 213.103 124.321 213.03C124.15 213.074 124.037 213.198 123.843 213.353C123.653 213.434 123.546 213.497 123.342 213.491C122.213 213.464 121.841 212.785 121.779 211.56C121.753 211.068 121.189 210.861 120.871 210.524C120.656 210.919 120.441 211.313 120.135 211.828C119.955 212.13 119.866 212.312 119.643 212.527C118.858 212.592 118.205 212.623 117.552 212.526C117.444 212.133 117.337 211.869 117.3 211.463C116.83 211.11 116.289 210.897 115.654 210.655C115.196 210.688 114.832 210.752 114.41 210.72C113.774 210.74 113.197 210.855 112.619 210.971C112.019 210.691 111.419 210.412 110.682 209.93C110.324 209.641 110.102 209.554 109.861 209.393C109.684 209.271 109.527 209.223 109.288 209.054C107.518 207.966 105.83 206.999 104.12 205.9C103.798 205.367 103.476 204.99 103.198 204.562C102.585 203.617 101.872 202.821 103.156 200.808C103.512 200.25 103.352 198.767 102.967 198.289C102.048 197.148 102.136 195.592 102.764 193.798C103.107 192.816 103.812 191.869 104.32 190.967C103.891 190.293 103.482 189.649 102.944 188.803C104.193 188.238 105.047 187.807 105.896 187.482C106.535 187.237 107.348 186.8 107.767 187.024C108.905 187.63 109.619 187.033 110.545 185.375C111.013 184.538 111.932 183.721 112.675 183.313C114.176 182.488 115.697 181.949 117.27 181.265C117.383 180.33 117.453 179.756 117.477 179.56C119.933 177.913 122.192 176.458 124.421 174.859C124.954 174.477 125.385 173.609 125.863 172.965C125.211 172.932 124.58 172.779 123.898 172.914C123.516 172.989 123.048 173.659 122.62 173.855C121.711 174.272 120.638 174.96 119.93 174.807C118.441 174.487 117.45 175.262 116.522 177.218C116.237 177.817 115.828 178.371 115.398 178.969C115.212 179.037 115.107 179.102 114.913 179.132C114.32 179.07 113.83 178.896 113.317 179.091C112.159 179.533 110.99 180.158 109.75 180.678C109.56 180.736 109.445 180.825 109.258 180.869C109.06 180.833 108.935 180.842 108.844 180.702C108.175 178.895 108.366 178.471 110.479 177.227C110.988 176.964 111.397 176.686 111.923 176.398C113.399 175.618 114.757 174.844 116.117 174.081C118.546 172.718 120.978 171.389 123.404 169.989C124.33 169.454 125.242 168.762 126.219 168.232C126.617 168.233 126.957 168.145 127.386 168.061C127.718 167.887 127.961 167.708 128.295 167.563C128.743 167.49 129.101 167.384 129.549 167.306C130.034 167.081 130.429 166.827 130.831 166.549C130.838 166.527 130.854 166.557 130.933 166.632C131.328 166.688 131.643 166.668 132.04 166.747C134.897 168.166 131.036 169.784 130.873 171.511C131.218 171.569 131.905 171.783 131.96 171.681C133.114 169.529 134.58 170.003 135.876 169.208C136.207 169.005 136.599 168.925 136.861 168.629C137.37 168.054 137.808 167.366 138.275 166.725C137.7 166.684 137.092 166.335 136.555 166.658C134.663 167.794 133.631 167.59 133.529 165.603C134.082 165.09 134.505 164.693 134.998 164.366C135.557 164.251 136.046 164.066 136.646 163.832C137.541 163.131 138.325 162.479 139.207 161.786C139.697 161.517 140.087 161.289 140.56 161.132C140.951 161.188 141.26 161.175 141.611 161.259C141.899 161.259 142.147 161.161 142.506 161.075C142.824 161.157 143.029 161.226 143.204 161.426C143.664 161.44 144.155 161.324 144.771 161.14C145.044 160.929 145.192 160.785 145.41 160.676C145.656 160.628 145.832 160.544 146 160.552C145.991 160.645 146.144 160.559 146.144 160.559C146.144 160.559 146.092 160.416 146.206 160.386C146.398 160.308 146.475 160.26 146.64 160.257C148.156 159.591 149.584 158.879 151.08 158.143C151.149 158.119 151.286 158.078 151.367 158.143C152.039 158.098 152.629 157.988 153.329 157.857C154.054 157.27 154.669 156.705 155.349 156.089C155.412 156.038 155.541 155.939 155.633 155.967C156.292 155.638 156.859 155.281 157.425 154.905C157.425 154.886 157.429 154.922 157.51 154.962C157.849 154.829 158.107 154.656 158.43 154.461C158.495 154.439 158.626 154.395 158.698 154.465C159.108 154.345 159.445 154.156 159.894 153.906C160.359 153.796 160.712 153.747 161.071 153.847C161.83 154.484 161.652 155.372 160.89 156.535C160.268 157.08 159.77 157.548 159.203 158.16C159.122 159.552 159.771 159.226 160.543 158.642C160.555 158.647 160.576 158.613 160.681 158.623C161.988 158.106 162.631 157.282 162.673 155.712C162.688 155.146 163.316 154.319 163.664 153.61C164.004 154.008 164.377 154.367 164.672 154.816C164.902 155.166 165.035 155.629 165.25 156.134C165.567 155.653 165.665 155.537 165.723 155.409C165.783 155.277 165.852 155.103 165.837 155C165.552 153.059 166.281 152.015 168.079 151.305C168.847 151.002 169.656 149.863 170.55 149.065C170.859 148.971 171.064 148.914 171.315 148.958C171.566 149.029 171.771 149 172.07 149C172.283 149.082 172.4 149.137 172.509 149.345C173.042 150.161 173.472 150.999 174.698 149.379C175.498 148.323 176.475 147.463 177.376 146.493C177.38 146.47 177.394 146.503 177.486 146.54C179.42 145.875 181.261 145.172 183.2 144.435C183.609 144.242 183.92 144.082 184.258 143.91C184.284 143.898 184.329 143.908 184.395 143.972C184.806 143.944 185.151 143.851 185.575 143.814C185.997 143.733 186.34 143.597 186.788 143.412C187.214 143.075 187.538 142.787 187.95 142.531C188.446 142.299 188.854 142.036 189.376 141.769C189.708 141.786 189.926 141.806 190.182 141.937C190.483 142.11 190.746 142.172 191.105 142.276C191.668 141.822 192.135 141.327 192.686 140.784C192.852 140.631 192.935 140.524 193.115 140.459C193.441 140.486 193.669 140.471 193.963 140.538C194.83 140.103 195.631 139.587 196.535 139.078C197.789 138.309 199.003 137.58 198.822 135.497C198.259 135.782 197.752 136.038 197.134 136.355C196.297 136.694 195.569 136.974 194.775 137.174C194.442 137.262 194.175 137.431 193.878 137.647C193.849 137.694 193.855 137.788 193.815 137.683C193.495 137.585 193.215 137.59 192.859 137.536C192.519 137.657 192.254 137.838 191.875 138.051C190.913 138.222 190.066 138.36 189.194 138.387C188.918 138.311 188.665 138.346 188.305 138.363C187.601 138.526 187.005 138.708 186.372 138.856C186.335 138.822 186.221 138.882 186.152 138.794C185.555 138.879 185.026 139.052 184.395 139.186C183.838 139.106 183.383 139.064 182.883 138.911C180.831 139.365 178.824 139.93 176.716 140.492C176.048 140.761 175.481 141.034 174.908 141.32C174.902 141.335 174.92 141.343 174.857 141.257C174.644 141.206 174.493 141.241 174.267 141.219C173.705 141.298 173.218 141.435 172.658 141.533C172.466 141.503 172.346 141.512 172.169 141.421C171.959 141.335 171.806 141.349 171.583 141.292C170.401 141.729 169.29 142.237 168.117 142.73C168.055 142.715 167.911 142.778 167.845 142.702C167.298 142.902 166.817 143.179 166.308 143.444C166.282 143.432 166.226 143.503 166.154 143.429C162.337 144.099 158.597 144.823 154.846 145.605C154.113 145.758 153.341 146.134 152.499 146.399C152.166 146.555 151.92 146.719 151.593 146.855C151.317 146.901 151.123 146.976 150.83 147.022C148.648 147.586 146.56 148.215 144.483 148.76C141.828 149.457 139.182 150.086 136.483 150.712C136.434 150.68 136.301 150.706 136.241 150.6C133.511 150.943 130.858 151.296 128.167 151.876C126.464 152.244 124.703 152.948 122.968 153.505C122.424 153.679 121.855 153.97 121.339 154.028C118.317 154.366 115.439 154.356 112.135 155.722C108.648 157.165 105.187 157.535 101.746 158.2C100.153 158.508 98.6421 158.381 97.0842 158.489C95.3441 158.61 93.6215 158.621 91.8397 158.957C89.3884 159.419 86.8371 160.376 84.4216 160.699C80.7148 161.194 77.0843 161.34 73.4269 161.612C71.0663 161.788 68.4343 162.551 66.4211 161.945C62.6414 160.805 59.2324 158.843 55.6393 157.281C55.1946 157.088 54.5515 157.009 54.0287 157.297C52.4687 158.157 51.538 157.588 51.095 156.367C50.7311 155.364 50.2572 155.53 49.4942 156.262C48.0073 157.689 47.1678 157.401 46.7097 155.952C46.0508 153.867 45.2687 151.966 43.3629 151.307C42.8774 151.14 42.5494 150.237 42.5592 149.49C42.586 147.451 42.7676 145.333 43.0303 143.205C43.1084 142.573 43.5769 141.702 44.0266 141.144C44.2493 140.867 44.9326 140.882 45.2384 141.06C46.0865 141.556 46.3667 140.6 46.8297 139.735C47.0341 139.471 47.1586 139.281 47.3991 139.042C47.5584 138.899 47.6017 138.804 47.7026 138.724C47.7603 138.738 47.8921 138.71 47.9494 138.812C48.7227 139.967 49.6242 139.892 50.8378 138.242C50.8999 138.186 51.0234 138.071 51.1103 138.098C51.4526 137.93 51.7081 137.736 51.971 137.527C51.9785 137.513 51.9633 137.498 52.058 137.535C52.6556 137.355 53.1585 137.138 54.0954 136.733C53.5923 136.191 53.3137 135.89 52.9759 135.446C52.744 135.08 52.5712 134.858 52.4675 134.54C52.6171 134.223 52.6976 134.003 52.8843 133.828C54.8862 132.125 56.7819 130.377 58.6776 128.628C58.7037 128.431 58.7297 128.233 58.7558 128.036C58.2135 128.157 57.4168 128.064 57.1706 128.433C55.7254 130.599 55.0372 129.69 54.2934 128.796C54.3083 128.709 54.3127 128.543 54.4326 128.411C54.6274 128.056 54.7022 127.833 54.8885 127.483C55.2703 126.984 55.5406 126.612 55.913 126.25C58.2257 124.615 60.201 124.888 61.0759 126.816C61.2545 127.21 61.9933 127.541 62.2183 127.325C63.0952 126.483 64.0101 125.5 64.6544 124.407C66.3578 121.519 66.4566 121.39 68.5833 121.983C69.7313 122.302 71.536 121.182 72.6393 119.451C73.105 119.099 73.4711 118.823 73.9021 118.615C74.5094 118.419 75.0519 118.155 75.6955 117.883C75.938 117.828 76.0793 117.78 76.2799 117.828C76.9246 117.811 77.5101 117.697 78.1803 117.62C78.3923 117.669 78.5193 117.683 78.6217 117.823C79.6204 117.603 80.6439 117.258 81.7343 116.875C81.8012 116.839 81.8994 116.687 82.0104 116.659C82.6684 116.216 83.2154 115.8 83.8718 115.329C84.2663 115.08 84.5516 114.886 84.8715 114.807C85.2027 114.852 85.4992 114.784 85.8141 114.742C85.8323 114.769 85.901 114.757 85.9936 114.806C86.8922 114.36 87.6983 113.865 88.5994 113.342C88.8219 113.252 88.9495 113.192 89.1302 113.228C89.4803 113.284 89.7775 113.244 90.157 113.262C90.7988 113.136 91.3584 112.951 91.9239 112.78C91.9298 112.795 91.9405 112.754 92.0161 112.82C93.0802 112.301 94.0688 111.716 95.1321 111.158C95.3272 111.144 95.4475 111.102 95.6307 111.113C95.9293 111.051 96.1649 110.938 96.5056 110.845C96.769 110.815 96.9272 110.765 97.1553 110.787C97.9387 110.688 98.6521 110.516 99.4639 110.361C100.498 109.74 101.435 109.103 102.463 108.509C103.819 107.987 105.083 107.422 106.346 106.856C106.368 106.579 106.389 106.301 106.411 106.023C105.098 106.112 103.869 105.744 102.242 107.208C102.179 107.204 102.04 107.258 101.973 107.191C101.637 107.22 101.367 107.316 100.994 107.408C100.233 107.654 99.5748 107.903 98.8426 108.087C98.4295 108.036 98.0907 108.05 97.6553 108.007C96.8689 107.888 96.1789 107.826 95.4248 107.698C95.0937 107.731 94.8267 107.83 94.4817 107.91C94.285 107.919 94.1665 107.947 93.9927 107.918C93.6605 108.016 93.3835 108.172 93.0131 108.364C92.7608 108.557 92.602 108.715 92.3691 108.889C92.295 108.905 92.1446 108.996 92.0676 108.936C90.8864 109.186 89.7821 109.496 88.5765 109.768C87.6163 109.881 86.7575 110.033 85.8535 110.073C84.8883 110.275 83.9286 110.763 83.0563 110.867C80.984 111.114 78.92 111.289 76.9211 111.267C76.0646 111.258 75.3424 110.75 74.6233 110.353C73.4201 109.69 72.4318 108.19 71.0608 108.373C68.2383 108.75 66.3712 107.471 64.5791 105.979C63.7659 105.302 63.6453 103.402 62.7286 103.104C61.2886 102.638 60.8166 100.972 59.6749 100.334C57.4674 99.0998 57.9354 96.0709 57.9675 93.3092C57.9732 92.8191 58.7358 91.5261 59.0316 91.4483C60.5745 91.0428 60.6626 90.0647 60.6779 88.6944C60.7007 86.6438 63.9659 82.8067 65.2678 83.4774C66.5035 84.1139 68.1811 84.5631 67.9922 87.0961C67.9944 87.1099 67.9752 87.1389 67.8637 87.2333C67.6381 87.6111 67.5239 87.8945 67.3454 88.3361C67.6346 89.8792 68.3287 89.7093 69.26 88.1843C69.6804 87.4959 70.0241 86.7549 70.5211 85.9588C70.8647 85.6778 71.0898 85.4759 71.2958 85.3302C71.2767 85.3865 71.3187 85.4599 71.3847 85.5104C72.1811 84.9293 72.9115 84.2977 73.7228 83.7384C73.9557 83.8112 74.1077 83.8116 74.3219 83.9073C75.3329 83.9866 76.2817 83.9706 77.3076 83.9961C77.5071 84.0478 77.6295 84.058 77.7298 84.1905C78.3398 84.0705 78.9719 83.8283 79.6939 83.5855C79.9047 83.4885 80.0256 83.3921 80.2256 83.3294C80.5609 83.2242 80.8171 83.085 81.0915 82.9084C81.1097 82.8709 81.0719 82.8314 81.1805 82.8718C82.0521 83.1315 82.8151 83.351 83.6413 83.6756C84.1363 83.7322 84.7408 83.8949 84.9727 83.6021C86.9421 81.1152 88.5729 81.1476 90.2021 82.1285C90.5625 82.3363 90.8608 82.4288 91.221 82.6027C92.0554 82.5079 92.8279 82.3317 93.6646 82.1433C93.7288 82.1311 93.8316 81.9876 93.9506 81.9551C94.7513 81.0913 95.433 80.2602 96.2258 79.3696C96.6137 79.0645 96.8904 78.8188 97.2762 78.5934C98.4603 78.7263 99.4938 79.0241 100.626 78.8839C101.332 78.7965 102.187 78.0478 103.083 77.5365C103.307 77.3309 103.424 77.1847 103.642 77.0339C104.015 76.8388 104.287 76.6482 104.629 76.4702C104.7 76.4827 104.858 76.3742 104.92 76.4287C105.276 76.3507 105.57 76.2181 105.968 76.0583C106.181 75.8953 106.291 75.7596 106.412 75.6076C106.423 75.5912 106.447 75.5992 106.514 75.6689C106.858 75.6014 107.135 75.4642 107.494 75.3597C107.838 75.251 108.101 75.1096 108.43 74.987C108.496 75.0059 108.652 74.9069 108.731 74.9547C109.242 74.8272 109.673 74.652 110.122 74.5012C110.139 74.5256 110.204 74.498 110.3 74.5471C111.26 74.3967 112.124 74.1973 113.04 74.0575C113.205 74.0964 113.317 74.0756 113.511 74.0994C114.027 73.9318 114.461 73.7195 114.938 73.5284C114.98 73.5495 115.085 73.4587 115.178 73.4923C115.914 73.2103 116.557 72.8946 117.199 72.6087C117.198 72.6384 117.204 72.5782 117.266 72.6822C117.965 72.6825 118.602 72.5787 119.314 72.5281C119.709 72.621 120.028 72.6608 120.437 72.7699C120.769 72.7021 121.01 72.565 121.306 72.4494C121.459 72.4461 121.544 72.3771 121.672 72.3503C122.022 72.2402 122.317 72.0435 122.717 71.8298C123.035 71.6942 123.249 71.5755 123.521 71.5511C124.038 71.4716 124.496 71.2978 125.024 71.1781C125.343 71.1222 125.592 71.0122 125.825 70.8857C125.809 70.8691 125.851 70.8859 125.905 70.9908C126.336 71.0153 126.714 70.9348 127.166 70.8939C127.492 70.7992 127.742 70.6648 128.092 70.5423C128.546 70.3473 128.902 70.1405 129.337 69.9782C129.696 69.9248 129.976 69.8268 130.276 69.7615C130.297 69.7942 130.381 69.7608 130.473 69.8157C131.396 69.6523 132.226 69.4341 133.16 69.2255C134.14 68.8838 135.017 68.5325 135.989 68.2185C136.441 68.2893 136.797 68.3227 137.236 68.4332C140.211 67.9177 143.103 67.325 145.995 66.7323C146.339 66.5929 146.684 66.4534 147.218 66.3141C147.661 66.1258 147.917 65.9375 148.172 65.7491C148.172 65.7491 148.179 65.7105 148.255 65.8C148.832 65.6455 149.333 65.4014 149.833 65.1572C149.944 65.0771 150.054 64.997 150.336 64.9716C151.318 65.0032 152.129 64.9801 152.939 64.957C153.528 64.7503 154.117 64.5435 154.904 64.4098C157.157 65.0876 159.313 65.1453 161.84 63.2215C161.84 63.2215 161.993 63.2197 162.148 63.2998C165.464 63.1916 168.616 63.0413 171.797 62.7752C172.29 62.7339 172.915 62.162 173.479 61.8355C173.588 61.7599 173.697 61.6843 173.969 61.6746C176.324 61.5648 178.749 60.8532 180.639 61.3702C182.382 61.8471 184.108 61.4266 185.994 60.7959C186.108 60.8352 186.223 60.8744 186.423 61.0657C187.701 60.8061 188.892 60.3944 190.083 59.9828C190.358 60.096 190.633 60.2092 191.016 60.5062C193.35 61.543 195.889 60.8946 198.572 59.5599C198.847 59.6741 199.122 59.7882 199.511 60.0826C200.92 60.4864 202.148 61.1769 203.525 60.8244C205.606 60.2919 207.315 60.2737 208.603 61.6566C209.203 62.3011 209.794 63.1117 210.618 63.2687C212.039 63.5395 212.315 64.3327 210.895 66.6177C212.214 66.4846 213.265 66.398 214.331 66.2443C214.455 66.2265 214.809 65.7433 214.796 65.6367C214.757 65.3177 214.665 64.9055 214.455 64.8468C214.094 64.7463 213.496 65.0816 213.248 64.8656C213.038 64.6837 213.036 63.7137 213.195 63.5456C214.747 61.9009 216.038 62.4358 217.15 62.8584C217.591 63.026 217.41 64.5073 217.474 65.4119C217.53 66.2066 217.252 67.4277 217.611 67.7688C218.713 68.8184 218.375 70.0952 217.39 71.9529C216.659 73.3331 216.123 74.8942 215.768 76.3498C215.238 78.5261 214.806 80.6537 213.139 82.6356C212.802 82.9963 212.577 83.3121 212.351 83.6279C212.351 83.6279 212.354 83.668 212.253 83.6272C211.441 84.1998 210.73 84.8133 210.019 85.4267C210.019 85.4267 210.02 85.4671 209.928 85.404C208.806 86.1308 207.775 86.9208 206.744 87.7108C206.744 87.7108 206.605 87.8682 206.436 87.9458C205.422 88.9307 204.577 89.838 203.732 90.7454C203.562 91.0148 203.391 91.2843 203.026 91.6799C202.296 92.3408 201.759 92.8755 201.223 93.4102C201.223 93.4102 201.083 93.5687 200.906 93.6523C198.018 96.9527 195.411 100.599 191.772 100.463C190.953 101.099 190.243 101.682 189.425 102.31C187.15 103.555 184.984 104.754 182.818 105.954C182.738 106.228 182.658 106.501 182.578 106.775C183.005 107.015 183.383 107.555 183.866 107.444C186.235 106.901 188.646 106.102 191.008 105.591C191.573 105.469 192.01 106.104 192.477 106.47C192.449 106.549 192.432 106.703 192.37 106.825C192.307 107.026 192.305 107.105 192.234 107.316C192.073 107.624 191.982 107.799 191.785 107.989C191.499 108.207 191.319 108.411 191.124 108.609C191.11 108.602 191.09 108.647 191.004 108.619C190.583 108.814 190.248 109.038 189.823 109.281C189.554 109.41 189.375 109.518 189.096 109.599C186.782 109.343 184.021 111.444 182.006 110.306C181.77 110.173 181.235 110.402 180.887 110.665C179.463 111.742 178.485 111.441 177.487 110.85C176.321 110.16 174.964 109.988 173.211 111.596C172.849 111.776 172.586 111.919 172.236 112.012C170.858 112.341 169.567 112.72 168.215 113.101C168.155 113.103 168.026 113.157 167.948 113.11C167.604 113.225 167.338 113.387 166.96 113.56C165.776 113.732 164.704 113.893 163.579 113.966C163.262 113.989 162.998 114.099 162.67 114.222C162.605 114.235 162.474 114.301 162.41 114.229C162.078 114.281 161.809 114.405 161.477 114.543C161.415 114.558 161.288 114.627 161.209 114.577C160.71 114.755 160.291 114.985 159.81 115.215C159.748 115.215 159.616 115.258 159.542 115.193C159.047 115.377 158.626 115.626 158.139 115.884C158.073 115.893 157.937 115.944 157.858 115.883C156.568 116.438 155.357 117.054 154.146 117.67C154.122 118.003 154.097 118.336 154.073 118.668C155.721 118.335 157.37 118.003 159.103 117.672C159.306 117.647 159.425 117.621 159.613 117.662C159.947 117.569 160.211 117.408 160.548 117.229C160.62 117.211 160.767 117.133 160.825 117.211C161.145 117.17 161.409 117.05 161.735 116.93C161.798 116.929 161.932 116.881 161.994 116.953C162.323 116.916 162.591 116.807 162.966 116.708C163.367 116.723 163.661 116.728 164.009 116.831C164.553 116.775 165.045 116.621 165.627 116.446C165.902 116.352 166.086 116.28 166.353 116.273C167.813 115.941 169.191 115.542 170.677 115.094C171.43 114.739 172.073 114.434 172.783 114.194C173.101 114.111 173.354 113.963 173.716 113.814C174.037 113.819 174.25 113.826 174.51 113.948C175.059 113.911 175.563 113.759 176.161 113.61C176.523 113.547 176.79 113.48 177.097 113.537C177.88 113.521 178.614 113.466 179.367 113.226C182.204 112.325 184.834 112.884 187.9 111.108C188.687 111.283 189.378 111.389 190.144 111.543C190.488 111.46 190.756 111.331 191.122 111.215C191.428 111.226 191.635 111.225 191.917 111.335C192.907 111.878 193.632 113.029 195.24 111.209C196.266 110.793 197.18 110.441 198.146 110.168C198.453 110.197 198.708 110.148 199.043 110.108C199.24 110.091 199.357 110.064 199.548 110.094C199.886 109.989 200.15 109.827 200.503 109.658C200.777 109.561 200.962 109.471 201.226 109.44C201.741 109.389 202.176 109.28 202.687 109.22C203.058 109.348 203.354 109.427 203.626 109.649C203.975 110.245 204.348 110.7 204.721 111.154C205.195 110.481 205.668 109.808 206.236 109.036C206.574 108.668 206.817 108.397 207.135 108.136C207.266 108.13 207.321 108.115 207.444 108.192C207.879 108.352 208.246 108.42 208.699 108.543C210.002 108.287 211.217 107.974 212.433 107.662C212.695 107.611 212.958 107.561 213.25 107.632C213.887 107.626 214.494 107.5 215.101 107.373C215.376 107.326 215.651 107.279 216.071 107.362C216.886 107.453 217.556 107.414 218.227 107.374C218.351 107.373 218.475 107.372 218.609 107.497C220.256 107.336 221.893 107.05 223.53 106.765ZM208.901 136.161C208.901 136.161 208.9 136.149 208.712 136.097C208.385 136.393 208.057 136.689 207.737 137.054C207.737 137.054 207.724 136.989 207.525 136.969C206.491 137.583 205.458 138.197 204.202 138.902C202.538 139.98 200.882 141.389 199.207 141.165C199.018 141.14 198.592 141.759 198.291 142.098C198.291 142.098 198.3 142.065 198.215 141.92C198.157 141.93 198.098 141.94 197.845 141.893C196.432 142.614 195.019 143.355 193.606 144.04C193.305 144.185 193.001 144.126 192.698 144.165C191.878 144.274 191.057 144.384 190.236 144.494C190.134 144.874 190.032 145.254 189.93 145.634C190.576 145.642 191.2 145.812 191.871 145.628C194.021 145.038 196.187 144.35 198.354 143.617C198.752 143.482 199.185 142.959 199.719 142.818C201.243 142.192 202.766 141.567 204.496 140.936C205.215 140.528 205.934 140.12 206.675 139.636C206.675 139.636 206.672 139.708 206.853 139.789C207.968 139.148 209.084 138.508 210.326 137.773C210.326 137.773 210.45 137.669 210.637 137.706C211.042 137.416 211.447 137.126 211.851 136.786C211.851 136.786 211.856 136.834 212.047 136.893C213.446 136.428 214.843 136.023 216.246 135.46C216.64 135.302 217.055 134.68 217.46 134.27C217.224 133.99 217.049 133.441 216.739 133.475C215.35 133.631 213.922 133.952 212.311 134.2C212.106 134.212 211.902 134.225 211.512 134.176C211.041 134.581 210.57 134.985 209.968 135.484C209.968 135.484 209.841 135.593 209.665 135.543C209.41 135.745 209.155 135.947 208.901 136.161ZM61.0714 131.116C62.6155 130.998 64.1618 130.796 65.7487 129.127C64.9583 128.152 62.6887 129.081 60.6702 131.168C60.4529 131.247 60.2356 131.327 60.0183 131.407C60.028 131.504 60.0378 131.601 60.0475 131.698C60.3153 131.501 60.583 131.304 61.0714 131.116ZM247.351 114.683C248.243 114.619 249.135 114.555 250.027 114.491C250.18 114.205 250.332 113.918 250.485 113.632C250.133 113.153 249.903 112.309 249.402 112.274C248.486 112.212 247.51 112.812 247.351 114.683ZM49.2906 153.184C49.8268 152.431 50.6726 151.551 49.7348 151.124C49.4413 150.991 48.8101 151.509 48.3334 151.729C48.5647 152.262 48.7959 152.795 49.2906 153.184ZM201.632 218.165C202.461 218.468 202.983 217.994 203.325 216.569C202.347 216.782 201.474 216.972 200.602 217.162C200.54 217.305 200.477 217.449 200.415 217.592C200.744 217.777 201.073 217.962 201.632 218.165ZM360.891 225.624C361.008 225.286 361.25 224.659 361.223 224.652C360.539 224.466 359.826 224.346 359.118 224.214C359.003 224.487 358.887 224.761 358.771 225.034C359.401 225.231 360.032 225.427 360.891 225.624Z" fill="#00E5A7" fill-opacity="0.1"/>
<path fill-rule="evenodd" clip-rule="evenodd" d="M328 156C328 219.513 276.513 271 213 271C193.077 271 174.338 265.934 158 257.02L98 271L113.097 213C103.491 196.199 98 176.74 98 156C98 92.4873 149.487 41 213 41C276.513 41 328 92.4873 328 156ZM308 156C308 208.467 265.467 251 213 251C193.748 251 175.833 245.273 160.866 235.43L125 244L134.147 209C123.951 193.861 118 175.625 118 156C118 103.533 160.533 61 213 61C265.467 61 308 103.533 308 156Z" fill="#00E5A7"/>
<path d="M156 131.592C156 138.635 146 138.635 146 131.592C146 97.3839 197 97.3877 197 132.095C197 138.635 187 138.635 187 132.095C187 110.466 156 110.387 156 131.592Z" fill="#00E5A7"/>
<path d="M240.5 172.501C240.5 165.458 250.5 165.458 250.5 172.5C250.5 216.5 173 216.404 173 171.905C173 165.366 183.001 165.366 183.001 171.905C183.001 204.828 240.5 205 240.5 172.501Z" fill="#00E5A7"/>
<path d="M238 132.439C238 139.439 228 139.439 228 132.439C228 98.4356 279 98.4392 279 132.939C279 139.439 269 139.439 269 132.939C269 111.439 238 111.361 238 132.439Z" fill="#00E5A7"/>
<path d="M15.1617 213.443C6.78606 217.003 2.88388 226.673 6.44325 235.048C10.0026 243.424 19.6726 247.326 28.0482 243.767C36.4237 240.207 40.3259 230.537 36.7666 222.162C33.2072 213.786 23.5372 209.884 15.1617 213.443ZM26.8011 240.832C20.0578 243.698 12.2435 240.544 9.37777 233.801C6.51208 227.058 9.66547 219.243 16.4087 216.378C23.152 213.512 30.9664 216.665 33.832 223.409C36.6977 230.152 33.5443 237.966 26.8011 240.832ZM16.2984 229.705C17.3805 229.245 17.8832 228 17.4233 226.917C16.9634 225.835 15.7177 225.333 14.6356 225.792C13.5535 226.252 13.0508 227.498 13.5106 228.58C13.9705 229.662 15.2163 230.165 16.2984 229.705ZM26.0801 225.548C27.1622 225.088 27.6649 223.843 27.205 222.761C26.7452 221.678 25.4994 221.176 24.4173 221.636C23.3352 222.095 22.8325 223.341 23.2923 224.423C23.7522 225.505 24.998 226.008 26.0801 225.548ZM28.2108 229.883C27.5887 231.952 26.086 233.63 24.0991 234.474C22.1122 235.318 19.8638 235.242 17.94 234.248C17.1554 233.845 16.1923 234.16 15.7931 234.936C15.3903 235.721 15.7032 236.678 16.4817 237.083C19.2511 238.505 22.4824 238.618 25.3436 237.402C28.2047 236.186 30.3656 233.781 31.2643 230.801C31.519 229.957 31.0411 229.07 30.1967 228.815C29.361 228.564 28.4655 229.038 28.2108 229.883Z" fill="#00E5A7"/>
<path fill-rule="evenodd" clip-rule="evenodd" d="M411.902 245.857C411.023 245.586 410.075 245.668 409.265 246.086C408.456 246.504 407.852 247.223 407.586 248.085L407.472 248.452C408.09 248.637 408.752 248.841 409.469 249.062L412.104 249.876C412.821 250.097 413.485 250.302 414.097 250.497L414.21 250.13C414.476 249.268 414.383 248.333 413.95 247.532C413.517 246.731 412.78 246.128 411.902 245.857ZM416.282 251.256L416.419 250.812C416.862 249.375 416.706 247.817 415.984 246.481C415.263 245.146 414.035 244.141 412.571 243.689C411.106 243.238 409.526 243.375 408.177 244.072C406.828 244.768 405.821 245.967 405.378 247.404L405.241 247.847C405.037 247.801 404.841 247.757 404.649 247.72C403.315 247.459 402.144 247.411 400.985 247.76C400.586 247.88 400.199 248.034 399.827 248.22C398.748 248.76 397.945 249.591 397.179 250.688C396.435 251.754 395.665 253.162 394.697 254.932L394.626 255.061C393.233 257.61 392.134 259.62 391.482 261.289C390.813 262.995 390.54 264.517 390.989 266.049C391.139 266.561 391.347 267.054 391.605 267.522C392.385 268.924 393.674 269.825 395.374 270.59C397.04 271.339 399.268 272.027 402.095 272.899L404.76 273.722C407.587 274.595 409.815 275.282 411.612 275.603C413.448 275.929 415.022 275.911 416.455 275.192C416.933 274.952 417.382 274.661 417.794 274.323C419.028 273.312 419.661 271.899 420.072 270.114C420.472 268.367 420.699 266.088 420.982 263.196L420.998 263.05C421.197 261.043 421.353 259.446 421.34 258.145C421.325 256.808 421.13 255.669 420.543 254.614C420.341 254.251 420.108 253.906 419.846 253.582C419.085 252.64 418.092 252.02 416.842 251.484C416.657 251.405 416.471 251.329 416.283 251.256M404.221 249.948C403.086 249.724 402.339 249.736 401.682 249.933C401.409 250.016 401.143 250.121 400.889 250.249C400.277 250.555 399.737 251.056 399.085 251.988C398.419 252.943 397.706 254.242 396.701 256.082C395.258 258.72 394.229 260.605 393.636 262.125C393.049 263.624 392.957 264.595 393.206 265.441C393.308 265.789 393.45 266.128 393.627 266.447C394.057 267.221 394.819 267.852 396.315 268.526C397.83 269.207 399.92 269.854 402.843 270.756L405.351 271.53C408.274 272.433 410.362 273.076 411.999 273.367C413.615 273.654 414.599 273.562 415.391 273.165C415.718 273.001 416.025 272.802 416.306 272.571C416.988 272.013 417.46 271.16 417.822 269.589C418.187 267.999 418.4 265.863 418.696 262.872C418.901 260.784 419.046 259.308 419.032 258.145C419.02 257.009 418.855 256.29 418.522 255.692C418.385 255.443 418.226 255.207 418.047 254.985C417.615 254.451 417.003 254.022 415.94 253.565C414.853 253.1 413.411 252.653 411.37 252.023L408.866 251.25C406.826 250.62 405.383 250.177 404.221 249.948ZM402.221 261.136C402.526 261.126 402.825 261.235 403.051 261.441C403.277 261.646 403.411 261.931 403.426 262.232C403.458 262.936 403.712 263.615 404.152 264.176C404.591 264.737 405.195 265.152 405.88 265.363C406.565 265.575 407.298 265.573 407.977 265.357C408.656 265.142 409.249 264.724 409.673 264.16C409.763 264.041 409.876 263.94 410.006 263.864C410.135 263.788 410.279 263.739 410.429 263.718C410.579 263.697 410.732 263.705 410.879 263.742C411.026 263.779 411.165 263.845 411.287 263.934C411.409 264.024 411.512 264.136 411.591 264.265C411.669 264.393 411.721 264.535 411.744 264.683C411.767 264.831 411.76 264.981 411.724 265.126C411.688 265.27 411.623 265.406 411.533 265.526C410.826 266.465 409.839 267.162 408.707 267.521C407.575 267.881 406.354 267.884 405.212 267.532C404.07 267.179 403.063 266.488 402.331 265.553C401.598 264.618 401.175 263.486 401.121 262.312C401.107 262.011 401.215 261.718 401.421 261.497C401.627 261.277 401.915 261.147 402.221 261.136Z" fill="#00E5A7"/>
<path fill-rule="evenodd" clip-rule="evenodd" d="M51.4084 6.64528C50.7388 6.70926 49.8622 6.93652 48.2862 7.36121C45.6174 8.08041 43.7206 8.59454 42.3356 9.17384C40.9774 9.74146 40.2642 10.3144 39.8336 11.0606C39.4034 11.8082 39.2674 12.711 39.4568 14.1622C39.6504 15.6452 40.1556 17.5309 40.8714 20.1872L42.3721 25.756C43.0871 28.4096 43.5979 30.2938 44.1757 31.6732C44.7411 33.0231 45.3123 33.7353 46.0603 34.1669C46.8075 34.5957 47.7102 34.7318 49.1614 34.5423C50.6448 34.3501 52.5302 33.8435 55.1851 33.1281L60.7539 31.6274C63.4088 30.912 65.2945 30.4008 66.6739 29.823C68.0224 29.258 68.7346 28.6868 69.1648 27.9392C69.595 27.1916 69.731 26.2889 69.5415 24.8377C69.3483 23.3561 68.8428 21.4689 68.1273 18.814L67.9634 18.2056C67.3871 16.0672 67.1001 15.0574 66.6658 14.3547L62.3082 15.5289C60.7309 15.954 59.4431 16.301 58.3872 16.4392C57.2863 16.5821 56.2814 16.5214 55.3465 15.9834C54.4115 15.4454 53.8545 14.6084 53.4241 13.582C53.0138 12.6025 52.6664 11.3133 52.2409 9.73456L51.4084 6.64528ZM53.7879 7.16287L54.3093 9.09802C54.7595 10.7687 55.0715 11.9151 55.4192 12.7457C55.755 13.5482 56.0654 13.9021 56.4255 14.1082C56.7847 14.316 57.2466 14.4066 58.1092 14.2936C59.0021 14.1769 60.15 13.8706 61.8206 13.4204L64.6329 12.6625C63.9615 12.2978 63.2839 11.9447 62.6003 11.6035L55.7519 8.12839C55.1038 7.79322 54.449 7.47132 53.7879 7.16287ZM47.9254 5.21851C49.8535 4.6989 51.0996 4.36313 52.3635 4.49291C53.6278 4.62408 54.7731 5.20546 56.5464 6.10591L56.7313 6.19942L63.5784 9.6749L63.7944 9.78393C65.8423 10.8224 67.1673 11.4943 68.0861 12.6265C69.0063 13.7583 69.3928 15.1922 69.9886 17.409L70.2366 18.3292C70.9262 20.8881 71.4724 22.9151 71.6867 24.5582C71.9065 26.2492 71.8003 27.6949 71.0399 29.0183C70.2778 30.3407 69.0812 31.1589 67.5088 31.8186C65.9791 32.4593 63.9534 33.0051 61.3946 33.6947L55.6699 35.2374C53.111 35.927 51.084 36.4732 49.4409 36.6875C47.7499 36.9072 46.3042 36.8011 44.9808 36.0407C43.6584 35.2786 42.8402 34.0819 42.1805 32.5096C41.5398 30.9799 40.994 28.9542 40.3044 26.3954L38.7621 20.672C38.0725 18.1132 37.5263 16.0861 37.312 14.443C37.0922 12.7521 37.1984 11.3064 37.9588 9.98297C38.7219 8.65884 39.9217 7.84124 41.5011 7.1797C43.0363 6.5375 45.0731 5.98863 47.6459 5.29531L47.7239 5.2743L47.9254 5.21851Z" fill="#00E5A7"/>
<path d="M63.7905 20.7293C64.1015 21.8834 63.7296 22.9857 62.9611 23.1928C62.1926 23.3999 61.3171 22.6338 61.0061 21.4797C60.6955 20.3269 61.0671 19.2233 61.8356 19.0162C62.604 18.8091 63.4799 19.5766 63.7905 20.7293Z" fill="#00E5A7"/>
<path fill-rule="evenodd" clip-rule="evenodd" d="M51.3609 27.9375C51.4525 27.6658 51.6482 27.4415 51.9051 27.314C52.162 27.1865 52.459 27.1663 52.7308 27.2578C53.9875 27.681 55.3414 27.7227 56.6218 27.3777C57.9022 27.0326 59.0518 26.3163 59.9257 25.3189C60.0187 25.2103 60.1324 25.1213 60.2601 25.0569C60.3878 24.9926 60.527 24.9542 60.6697 24.944C60.8123 24.9338 60.9556 24.952 61.0912 24.9975C61.2267 25.0431 61.3519 25.1151 61.4595 25.2093C61.567 25.3036 61.6548 25.4182 61.7178 25.5466C61.7807 25.6751 61.8176 25.8147 61.8262 25.9574C61.8348 26.1002 61.815 26.2432 61.768 26.3783C61.721 26.5133 61.6476 26.6377 61.5522 26.7442C60.3969 28.0627 58.8771 29.0097 57.1845 29.4658C55.4919 29.9219 53.7021 29.8668 52.0407 29.3074C51.7689 29.2159 51.5446 29.0201 51.4171 28.7632C51.2897 28.5063 51.2695 28.2093 51.3609 27.9375Z" fill="#00E5A7"/>
<path d="M49.8686 24.481C50.1796 25.6352 49.8077 26.7374 49.0392 26.9445C48.2707 27.1516 47.3953 26.3855 47.0842 25.2314C46.7736 24.0786 47.1452 22.975 47.9137 22.7679C48.6822 22.5608 49.558 23.3283 49.8686 24.481Z" fill="#00E5A7"/>
<path d="M373 51.6576C372.904 51.5501 372.788 51.4628 372.658 51.4009C372.528 51.3391 372.386 51.3038 372.243 51.2972C372.099 51.2907 371.955 51.3129 371.82 51.3627C371.684 51.4125 371.561 51.4888 371.455 51.5871C371.35 51.6854 371.265 51.8038 371.206 51.9353C371.148 52.0667 371.116 52.2086 371.112 52.3527C371.109 52.4967 371.134 52.6399 371.187 52.774C371.24 52.908 371.319 53.0301 371.42 53.1332C372.638 54.4469 374.249 55.3317 376.011 55.656C377.774 55.9768 379.593 55.7194 381.198 54.9223C381.328 54.8616 381.445 54.7754 381.542 54.6687C381.639 54.5621 381.714 54.4372 381.762 54.3013C381.81 54.1654 381.83 54.0213 381.821 53.8775C381.813 53.7337 381.776 53.5931 381.712 53.4638C381.648 53.3346 381.559 53.2194 381.451 53.125C381.342 53.0305 381.215 52.9588 381.078 52.914C380.941 52.8692 380.797 52.8521 380.653 52.8639C380.51 52.8757 380.37 52.9161 380.242 52.9827C379.054 53.5743 377.706 53.7658 376.4 53.5285C375.095 53.288 373.902 52.6316 373 51.6576Z" fill="#00E5A7"/>
<path fill-rule="evenodd" clip-rule="evenodd" d="M380.29 32.2532C379.286 32.0695 378.321 32.1905 377.242 32.4899C376.201 32.7802 374.969 33.2643 373.432 33.8684L370.167 35.1517C368.714 35.7242 367.547 36.182 366.629 36.6515C365.676 37.1369 364.916 37.6721 364.297 38.4339C363.68 39.1932 363.309 40.0545 363.014 41.0984C362.729 42.1091 362.499 43.3685 362.21 44.9471L361.791 47.2348C361.297 49.9353 360.907 52.067 360.819 53.7732C360.728 55.5228 360.943 56.9885 361.799 58.2722C362.658 59.5624 363.915 60.2997 365.544 60.8366C367.119 61.358 369.187 61.7364 371.791 62.2129L377.629 63.281C380.233 63.7575 382.301 64.1359 383.959 64.2063C385.671 64.2805 387.109 64.0366 388.371 63.1344C389.624 62.2365 390.345 60.9421 390.88 59.2738C391.401 57.6467 391.791 55.515 392.285 52.8145L392.703 50.5268C392.992 48.9482 393.223 47.6902 393.315 46.6428C393.41 45.5609 393.366 44.625 393.058 43.6965C392.749 42.7649 392.225 41.9963 391.509 41.2041C390.816 40.4383 389.888 39.5986 388.73 38.5483L386.131 36.1922C384.908 35.083 383.928 34.1941 383.055 33.5537C382.155 32.8906 381.295 32.4372 380.29 32.2532ZM374.169 35.903C375.772 35.2729 376.901 34.8315 377.823 34.5737C378.721 34.3231 379.333 34.2769 379.901 34.3807C380.468 34.4845 381.024 34.7446 381.775 35.2968C382.548 35.8633 383.445 36.6769 384.721 37.8338L387.236 40.113C388.444 41.2091 389.293 41.9786 389.907 42.6569C390.504 43.3156 390.822 43.8268 391.004 44.3761C391.186 44.9269 391.24 45.542 391.159 46.4537C391.078 47.3886 390.867 48.5476 390.566 50.19L390.172 52.3473C389.66 55.1413 389.293 57.135 388.82 58.6125C388.355 60.0636 387.833 60.8592 387.112 61.3767C386.396 61.8891 385.508 62.1092 384.052 62.0466C382.56 61.9817 380.641 61.6334 377.936 61.1385L372.263 60.1004C369.557 59.6053 367.64 59.2516 366.221 58.7839C364.838 58.3256 364.086 57.8068 363.598 57.0727C363.106 56.3347 362.899 55.4057 362.98 53.8843C363.058 52.3346 363.421 50.3416 363.933 47.5461L364.328 45.3889C364.628 43.7465 364.84 42.5877 365.096 41.6847C365.344 40.8037 365.611 40.2472 365.977 39.7966C366.342 39.3475 366.821 38.9821 367.613 38.5774C368.426 38.1605 369.493 37.7414 371.011 37.1441L374.169 35.903Z" fill="#00E5A7"/>
</svg>
