<svg width="617" height="191" viewBox="0 0 617 191" fill="none" xmlns="http://www.w3.org/2000/svg">
    <path
        d="M120.23 43.7755L121.105 64.5451C124.312 90.4809 128.808 113.154 134.593 132.564C140.356 151.789 145.553 161.115 150.184 160.542C156.483 159.764 162.342 150.105 167.762 131.567C173.181 113.028 174.803 94.9592 172.627 77.3599C170.13 57.167 166.305 43.7214 161.151 37.0233C159.163 34.6358 156.191 31.8998 152.236 28.8151C144.95 23.1328 140.941 17.3276 140.208 11.3994C139.865 8.62056 140.331 6.30587 141.607 4.45532C143.045 2.39662 144.876 1.22983 147.099 0.954974C152.842 0.244919 157.945 1.96509 162.408 6.11548C166.848 10.0806 170.348 15.5726 172.909 22.5915C177.638 34.9847 180.885 48.3137 182.649 62.5785C186.749 95.7393 183.864 123.369 173.994 145.467C164.31 167.542 153.539 179.312 141.683 180.778C133.161 181.832 125.648 173.545 119.142 155.916C112.822 138.265 107.932 115.453 104.473 87.4792C99.0844 135.167 90.9396 165.892 80.0392 179.654C74.6358 186.153 68.4142 189.837 61.3745 190.708C57.6694 191.166 53.7696 190.049 49.6751 187.358C45.7429 184.459 42.6111 180.426 40.2795 175.259C35.223 164.787 30.7936 144.175 26.9914 113.423C19.0732 113.273 11.8741 112.094 5.39422 109.886C2.24688 108.77 0.558685 107.286 0.329635 105.434C0.100584 103.581 1.83862 102.426 5.54374 101.968L26.0668 103.662C23.7715 71.4069 26.7345 45.9309 34.9558 27.2341C39.3453 17.0989 44.9673 11.6075 51.8218 10.7601C64.2339 9.22542 71.5852 17.7209 73.8757 36.2465C75.7311 51.2523 74.6347 65.9646 70.5868 80.3836C66.5388 94.8026 59.0009 104.575 47.9731 109.7C49.5078 122.112 51.6231 133.136 54.3191 142.771C59.6883 161.857 64.5033 171.136 68.7642 170.609C72.284 170.174 76.2626 164.321 80.7 153.052C85.1144 141.597 88.8855 126.46 92.0132 107.64C95.3262 88.7982 96.7284 70.4744 96.2197 52.6689C96.0843 50.0524 98.2188 46.7791 102.623 42.8489C107.028 38.9188 110.156 36.8392 112.009 36.6102C116.825 36.0146 119.566 38.4031 120.23 43.7755ZM46.9081 101.086C54.4847 96.9513 59.6705 88.6926 62.4655 76.3094C65.4228 63.718 66.4777 53.9951 65.6302 47.1406C64.7598 40.1009 63.8406 34.9481 62.8725 31.6822C60.8657 26.0996 58.7507 23.4457 56.5276 23.7206C52.452 24.2245 49.43 33.2502 47.4616 50.7976C45.6556 68.1369 45.4711 84.8996 46.9081 101.086Z"
        fill="black" />
    <path
        d="M233.33 166.483C224.006 167.636 216.164 165.055 209.805 158.742C203.425 152.261 199.68 144.526 198.568 135.535C196.324 117.386 198.455 103.176 204.962 92.9051C211.468 82.634 220.798 76.7471 232.953 75.2443C238.614 74.5444 243.472 75.5497 247.526 78.2603C251.559 80.8045 253.906 84.7406 254.564 90.0686C255.8 100.059 252.593 108.992 244.946 116.868C237.444 124.558 227.637 129.32 215.523 131.156C216.992 137.567 219.856 142.961 224.117 147.337C228.522 151.525 233.223 153.311 238.218 152.693C243.213 152.075 247.565 150.354 251.272 147.529C254.98 144.704 258.231 140.921 261.026 136.18C266.887 126.158 271.595 115.011 275.149 102.738C276.11 99.5761 276.841 97.2881 277.343 95.8737C278.011 94.4388 278.761 93.6698 279.593 93.5669C280.592 93.4434 281.174 94.0476 281.339 95.3796C282.368 103.705 278.834 116.82 270.736 134.726C261.949 153.901 249.481 164.486 233.33 166.483ZM214.782 125.162C224.4 122.283 231.168 118.234 235.087 113.016C239.173 107.778 240.753 101.412 239.826 93.9194C238.9 86.4268 236.022 82.979 231.194 83.576C225.366 84.2966 220.959 88.9831 217.971 97.6358C214.964 106.122 213.9 115.297 214.782 125.162Z"
        fill="black" />
    <path
        d="M311.926 68.0158C319.585 67.0688 326.262 69.1171 331.957 74.1605C337.632 79.0375 341.17 86.4607 342.571 96.4303C349.151 93.5882 354.846 90.4328 359.658 86.9641C364.636 83.4748 367.292 81.7096 367.625 81.6684C368.624 81.5449 369.226 82.3157 369.432 83.9807C369.638 85.6457 367.543 88.525 363.146 92.6185C358.917 96.6915 352.273 101.063 343.214 105.733C343.048 120.799 338.475 133.028 329.493 142.422C320.491 151.649 310.995 156.881 301.005 158.116C291.015 159.351 283.902 156.511 279.666 149.597C275.41 142.516 272.294 130.984 270.317 114.999C268.341 99.0152 267.633 83.7195 268.194 69.1121C268.754 54.5048 270.362 42.8953 273.016 34.2839C275.65 25.5059 278.614 18.7156 281.908 13.9131C285.349 8.92346 288.817 6.21249 292.313 5.78018C293.978 5.57432 295.724 7.38707 297.55 11.2184C299.543 15.0292 300.899 19.8483 301.62 25.6759C303.205 38.4965 302.727 53.7699 300.185 71.496C303.184 69.7728 307.097 68.6128 311.926 68.0158ZM328.723 111.582C327.412 111.913 324.592 112.346 320.262 112.881C316.1 113.396 311.263 112.557 305.751 110.365C300.386 107.985 296.468 104.328 293.998 99.393C292.848 103.761 291.427 107.994 289.736 112.091C291.634 124.704 293.755 133.655 296.099 138.944C298.444 144.232 301.447 146.65 305.11 146.197C310.938 145.477 316.3 142.363 321.198 136.855C326.241 131.16 328.75 122.735 328.723 111.582ZM296.181 30.9126C295.317 23.9195 293.969 20.5362 292.137 20.7626C290.639 20.9479 289.26 24.8374 288.001 32.4311C286.889 39.8377 286.188 49.898 285.901 62.6121C285.759 75.1391 286.44 87.4799 287.943 99.6346C295.082 67.14 297.828 44.2327 296.181 30.9126ZM309.042 77.5009C306.711 77.7891 304.888 78.7751 303.575 80.4589C302.408 81.9556 301.968 83.8695 302.257 86.2005C302.895 91.3621 305.678 95.4132 310.606 98.3539C315.679 101.108 321.463 102.083 327.957 101.28C326.946 94.4741 324.873 88.6447 321.737 83.7919C318.602 78.9392 314.37 76.8422 309.042 77.5009Z"
        fill="black" />
    <path
        d="M395.247 134.039C401.241 133.298 406.105 129.569 409.839 122.852C413.552 115.97 415.935 107.899 416.988 98.6401C410.768 97.5496 405.798 94.9522 402.078 90.8478C398.338 86.5769 396.098 81.4444 395.357 75.4504C394.616 69.4563 395.466 64.0262 397.907 59.1601C400.515 54.2734 404.732 51.4698 410.56 50.7493C414.056 50.317 416.998 52.2354 419.386 56.5045C421.752 60.6071 423.275 65.4057 423.955 70.9002C424.634 76.3948 424.897 81.9408 424.744 87.5383C427.365 88.2285 430.091 88.3986 432.921 88.0487C439.415 87.2458 445.288 83.4768 450.541 76.7416C453.168 73.374 454.98 71.6285 455.979 71.505C457.145 71.3609 457.831 72.1213 458.036 73.7863C458.242 75.4514 457.407 77.5832 455.531 80.1818C447.921 91.0965 437.372 97.3876 423.886 99.0551C422.225 111.601 418.579 122.448 412.949 131.597C407.318 140.745 399.674 145.916 390.017 147.11C384.356 147.81 379.395 145.972 375.135 141.597C368.007 134.533 363.506 123.425 361.633 108.273C360.995 103.112 360.588 96.4003 360.411 88.1388C360.235 79.8773 360.533 74.769 361.306 72.814C362.245 70.8384 364.631 68.2612 368.464 65.0825C372.464 61.8833 375.296 60.1807 376.961 59.9748C379.459 59.666 380.893 61.0102 381.263 64.0072C382.313 72.4988 381.291 82.0072 378.197 92.5326C379.659 104.354 381.83 114.398 384.712 122.663C387.739 130.741 391.251 134.533 395.247 134.039ZM409.236 60.5487C407.904 60.7134 407.577 63.543 408.257 69.0376C408.936 74.5321 412.082 79.4681 417.695 83.8456C417.781 81.8064 417.7 79.7878 417.453 77.7898C415.971 65.8017 413.232 60.0546 409.236 60.5487Z"
        fill="black" />
    <path
        d="M523.037 130.664C516.544 131.467 511.467 130.742 507.808 128.49C506.498 127.468 505.555 124.626 504.979 119.964C504.382 115.136 503.756 108.705 503.101 100.672C500.11 112.029 496.779 120.64 493.109 126.503C489.584 132.18 484.492 135.429 477.832 136.253C471.172 137.076 464.964 134.717 459.207 129.174C453.43 123.464 449.717 113.949 448.071 100.629C446.403 87.1425 448.677 74.7744 454.894 63.5249C461.276 52.2549 470.628 45.8581 482.949 44.3348C488.278 43.676 494.704 46.4314 502.229 52.6011C503.334 50.6048 505.398 48.1521 508.419 45.2429C511.586 42.1465 514.335 40.4542 516.666 40.166C519.164 39.8572 520.803 42.8664 521.586 49.1935C521.792 50.8585 521.694 54.167 521.292 59.1191C521.056 64.0506 520.489 67.6706 519.591 69.9792C518.566 73.9941 519.495 87.6566 522.377 110.967C522.933 115.462 523.71 117.648 524.709 117.525C527.519 117.008 531 113.028 535.151 105.584C539.281 97.9733 543.092 88.4581 546.582 77.0385C550.239 65.5983 552.567 59.8165 553.566 59.6929C554.731 59.5488 555.397 60.1428 555.561 61.4748C556.138 66.1369 554.639 73.8447 551.067 84.5983C541.372 114.197 532.028 129.552 523.037 130.664ZM482.686 54.5101C478.024 55.0866 473.461 59.2007 468.998 66.8525C464.68 74.3173 463.098 82.7117 464.251 92.0358C465.404 101.36 467.683 108.854 471.088 114.519C474.659 120.163 478.693 122.707 483.189 122.151C488.683 121.472 495.06 106.737 502.319 77.9469C502.321 76.5943 502.21 74.3259 501.985 71.1418C501.907 67.7706 501.847 65.2422 501.808 63.5566C499.98 61.0778 497.007 58.9097 492.89 57.0521C488.918 55.0075 485.517 54.1602 482.686 54.5101Z"
        fill="black" />
    <path
        d="M561.98 58.3991L575.531 55.2022C576.863 55.0375 578.121 55.6427 579.305 57.0177C580.49 58.3927 581.185 59.9127 581.391 61.5777C581.596 63.2427 581.714 68.9758 581.742 78.777C581.937 88.5576 582.385 96.2785 583.085 101.94C583.764 107.434 584.603 110.12 585.602 109.996C588.412 109.48 591.893 105.499 596.044 98.0552C600.174 90.4445 603.984 80.9294 607.475 69.5098C611.132 58.0695 613.46 52.2877 614.459 52.1642C615.624 52.0201 616.289 52.614 616.454 53.946C617.031 58.6081 615.532 66.3159 611.96 77.0695C602.264 106.668 592.921 122.023 583.93 123.135C577.437 123.938 572.36 123.213 568.701 120.961C567.391 119.939 565.913 112.769 564.266 99.4484C562.619 86.1283 562.624 74.5479 564.281 64.7074C554.624 65.9014 547.5 63.6548 542.909 57.9678C540.52 55.0513 539.078 51.595 538.584 47.5989C538.09 43.6029 538.49 40.0034 539.784 36.8005C541.079 33.5976 543.225 31.8109 546.222 31.4404C549.385 31.0492 552.422 32.3643 555.331 35.3855C558.386 38.2197 560.161 41.6348 560.655 45.6308C561.149 49.6269 560.477 53.767 558.64 58.0513C559.368 58.4684 560.481 58.5844 561.98 58.3991Z"
        fill="black" />
    <style>path{fill:#000}@media (prefers-color-scheme:dark){path{fill:#fff}}</style>
</svg>