<svg viewBox="0 0 1024 1024" fill="none" xmlns="http://www.w3.org/2000/svg">
    <rect width="1024" height="1024" rx="100" fill="white" />
    <path
        d="M639.751 283.038L639.742 282.811L639.714 282.585C638.163 270.038 634.071 259.934 626.587 253.41C618.984 246.784 608.883 244.712 597.251 246.15C591.806 246.823 585.405 250.003 578.382 254.671C571.184 259.456 562.669 266.265 552.871 275.008C542.97 283.843 535.379 292.147 530.308 299.923C525.278 307.638 522.436 315.284 522.799 322.663C525.022 400.656 518.88 480.957 504.353 563.574L504.349 563.6L504.345 563.626C490.603 646.306 474.074 712.555 454.825 762.51C445.118 787.161 436.033 805.564 427.615 817.947C418.961 830.677 411.932 835.668 406.796 836.303C404.456 836.592 401.213 835.685 396.846 831.474C392.482 827.265 387.664 820.358 382.484 810.375C372.151 790.461 361.061 759.676 349.268 717.755C337.775 676.68 328.673 629.747 321.984 576.928C370.345 553.069 403.201 509.103 420.911 446.018C438.942 381.791 443.824 316.245 435.563 249.427C430.464 208.186 419.643 177.129 402.39 157.191C384.823 136.89 361.122 128.724 332.179 132.302C299.033 136.4 273.069 162.879 253.447 208.178C217.286 290.425 204.109 401.479 213.395 540.898L129.513 533.973L128.937 533.925L128.364 533.996C119.92 535.04 112.886 536.951 107.968 540.221C105.434 541.905 103.305 544.054 101.943 546.768C100.562 549.521 100.149 552.501 100.522 555.515C101.951 567.074 112.283 574.675 126.52 579.721L126.552 579.733L126.584 579.744C154.408 589.225 185.075 594.456 218.541 595.497C235.137 728.163 254.508 818.196 276.952 864.723C287.549 888.18 301.894 906.735 320.085 920.148L320.206 920.237L320.333 920.32C339.125 932.672 357.623 938.179 375.628 935.953C408.312 931.911 436.93 914.785 461.454 885.289L461.497 885.238L461.538 885.186C486.264 853.971 507.473 804.094 525.471 736.197C540.92 677.92 554.099 605.983 565.032 520.434C579.793 624.056 599.456 710.291 624.076 779.051L624.085 779.076L624.095 779.102C638.523 818.199 654.261 847.506 671.509 866.529C688.87 885.678 708.211 894.832 729.319 892.222C757.141 888.782 783.194 873.292 807.508 846.721C831.792 820.182 854.607 782.315 876.065 733.405C920.071 634.862 932.752 512.076 914.617 365.397C906.8 302.175 892.404 243.04 871.407 188.013C859.901 156.49 844.052 131.473 823.683 113.267C802.897 93.9565 778.811 85.7787 751.794 89.1191C740.224 90.5495 730.819 96.6945 723.697 106.889L723.687 106.903L723.677 106.918C717.099 116.457 714.93 128.119 716.569 141.372C720.058 169.593 739.025 196.356 771.659 221.808C788.882 235.241 801.598 246.982 809.99 257.042C820.689 270.982 830.312 292.355 838.635 321.608C846.954 350.845 853.869 387.576 859.346 431.873C868.828 508.559 861.775 587.367 838.101 668.346C826.222 708.981 813.967 739.49 801.435 760.148C788.761 781.041 776.594 790.581 765.383 791.967C762.459 792.329 758.753 791.263 754.036 787.062C749.294 782.839 744.088 775.907 738.506 765.889C727.363 745.893 715.435 714.924 702.779 672.702C677.427 587.645 657.689 488.185 643.596 374.283L639.751 283.038ZM374.284 425.276L374.279 425.299L374.273 425.323C363.14 474.649 343.499 507.84 316.055 526.201C310.6 458.087 311.658 387.622 319.241 314.802C323.562 276.293 329.004 247.51 335.467 228.207C338.705 218.536 342.094 211.571 345.499 207C348.904 202.428 351.883 200.811 354.281 200.515C356.37 200.256 359.424 201.143 363.536 206.302C367.61 211.414 371.881 219.76 376.205 231.759C380.313 245.684 384.303 267.943 388.116 298.782C391.724 327.966 387.265 370.005 374.284 425.276Z"
        fill="black" stroke="black" stroke-width="30" />
    <style>
        path { fill: #000; stroke: #000;}
        rect { fill: #FFF; }
        @media (prefers-color-scheme: dark) {
        path { fill: #FFF; stroke: #FFF;}
        rect { fill: #000; }
        }
    </style>
</svg>